<svg width="512" height="512" version="1.1" xmlns="http://www.w3.org/2000/svg" desc="Created with imagetracer.js version 1.2.6" ><path fill="rgb(142,78,61)" stroke="rgb(142,78,61)" stroke-width="1" opacity="1" d="M 233.5 0 L 278.5 0 L 279.5 1 L 295.5 2 L 323.5 8 L 355.5 19 Q 412.3 43.7 450 87.5 Q 484.5 126 502 181.5 L 509 210.5 L 511 232.5 L 512 233.5 L 512 278.5 L 511 279.5 L 509 301.5 L 502 330.5 Q 494 356.5 482 378.5 Q 459 420 424.5 450 Q 386 484.5 330.5 502 L 301.5 509 L 279.5 511 L 278.5 512 L 233.5 512 L 232.5 511 L 224.5 511 L 223.5 510 L 205.5 508 L 181.5 502 Q 155.5 494 133.5 482 Q 92 459 62 424.5 Q 27.5 386 10 330.5 L 3 301.5 L 1 279.5 L 0 278.5 L 0 233.5 L 1 232.5 L 1 223.5 L 2 222.5 L 3 210.5 L 10 181.5 Q 18 155.5 30 133.5 Q 53 92 87.5 62 Q 117.3 35.8 156.5 19 Q 176.9 10.4 200.5 5 Q 210 5 216.5 2 L 223.5 2 L 224.5 1 L 232.5 1 L 233.5 0 Z M 244 26 L 243 27 L 224 28 L 203 32 L 169 43 Q 133 58 106 82 Q 69 113 47 160 Q 38 179 32 203 L 28 224 L 27 243 L 26 244 L 26 269 L 27 270 L 28 289 L 33 314 L 40 336 Q 56 376 82 407 Q 113 443 160 465 Q 179 474 203 480 L 224 484 L 243 485 L 244 486 L 269 486 L 270 485 L 289 484 L 314 479 L 336 472 Q 377 456 408 429 Q 443 398 465 353 L 479 314 L 484 289 L 485 270 L 486 269 L 486 244 L 485 243 L 484 224 L 479 199 L 472 177 Q 456 136 430 106 Q 396 65 344 43 L 321 35 L 301 30 L 282 28 L 281 27 L 270 27 L 269 26 L 244 26 Z " /><path fill="rgb(142,78,61)" stroke="rgb(142,78,61)" stroke-width="1" opacity="1" d="M 253.5 153 Q 263.5 152.5 267 158.5 L 269 162.5 L 269 243 L 349.5 243 L 357 248.5 Q 359.7 251.8 359 258.5 Q 357.8 264.3 353.5 267 L 349.5 269 L 269 269 L 269 349.5 L 263.5 357 Q 260.2 359.7 253.5 359 Q 247.8 357.8 245 353.5 L 243 349.5 L 243 269 L 162.5 269 L 155 263.5 Q 152.3 260.2 153 253.5 Q 154.3 247.8 158.5 245 L 162.5 243 L 243 243 L 243 162.5 L 248.5 155 L 253.5 153 Z " /><path fill="rgb(0,0,0)" stroke="rgb(0,0,0)" stroke-width="1" opacity="0" d="M 0 0 L 233 0.5 L 205.5 4 L 181.5 10 Q 155.5 18 133.5 30 Q 92 53 62 87.5 Q 35.8 117.3 19 156.5 Q 10.4 176.9 5 200.5 L 1 223.5 L 0.5 233 L 0 0 Z " /><path fill="rgb(0,0,0)" stroke="rgb(0,0,0)" stroke-width="1" opacity="0" d="M 279.5 0 L 512 0 L 512 232.5 L 511 232.5 L 509 210.5 L 502 181.5 Q 494 155.5 482 133.5 Q 459 92 424.5 62 Q 397.3 38.2 362.5 22 L 323.5 8 L 295.5 2 L 279.5 1 L 279.5 0 Z " /><path fill="rgb(0,0,0)" stroke="rgb(0,0,0)" stroke-width="1" opacity="0" d="M 243.5 26 L 268.5 26 L 269.5 27 L 280.5 27 L 281.5 28 L 300.5 30 L 320.5 35 L 343.5 43 Q 395.7 65.3 430 105.5 Q 456.4 135.6 472 176.5 L 479 198.5 L 484 223.5 L 485 242.5 L 486 243.5 L 486 268.5 L 485 269.5 L 484 288.5 L 479 313.5 L 465 352.5 Q 443.4 397.9 407.5 429 Q 377.2 456.2 335.5 472 L 313.5 479 L 288.5 484 L 269.5 485 L 268.5 486 L 243.5 486 L 242.5 485 L 223.5 484 L 202.5 480 Q 179.4 474.1 159.5 465 Q 113.5 443 82 406.5 Q 55.6 376.4 40 335.5 L 33 313.5 L 28 288.5 L 27 269.5 L 26 268.5 L 26 243.5 L 27 242.5 L 28 223.5 L 32 202.5 Q 37.9 179.4 47 159.5 Q 68.9 113.4 105.5 82 Q 132.8 58.3 168.5 43 L 202.5 32 L 223.5 28 L 242.5 27 L 243.5 26 Z M 254 153 L 249 155 L 243 163 L 243 243 L 163 243 L 159 245 Q 154 248 153 254 Q 152 260 155 264 L 163 269 L 243 269 L 243 350 L 245 354 Q 248 358 254 359 Q 260 360 264 357 L 269 350 L 269 269 L 350 269 L 354 267 Q 358 264 359 259 Q 360 252 357 249 L 350 243 L 269 243 L 269 163 L 267 159 Q 263 153 254 153 Z " /><path fill="rgb(0,0,0)" stroke="rgb(0,0,0)" stroke-width="1" opacity="0" d="M 0.5 279 L 3 301.5 L 10 330.5 Q 18 356.5 30 378.5 Q 53 420 87.5 450 Q 117.3 476.2 156.5 493 Q 176.9 501.6 200.5 507 L 233 511.5 L 0 512 L 0.5 279 Z " /><path fill="rgb(0,0,0)" stroke="rgb(0,0,0)" stroke-width="1" opacity="0" d="M 511.5 279 L 512 512 L 279 511.5 L 301.5 509 L 330.5 502 Q 356.5 494 378.5 482 Q 420 459 450 424.5 Q 476.2 394.7 493 355.5 Q 501.6 335.1 507 311.5 L 511.5 279 Z " /></svg>