<svg width="512" height="512" version="1.1" xmlns="http://www.w3.org/2000/svg" desc="Created with imagetracer.js version 1.2.6" ><path fill="rgb(0,0,0)" stroke="rgb(0,0,0)" stroke-width="1" opacity="0" d="M 0 0 L 511.5 0 L 512 0.5 L 512 65.5 L 511 65.5 L 509 54.5 L 503 42.5 L 475.5 14 Q 467.7 7.3 456.5 4 L 447.5 2 L 431.5 2 Q 412.6 5.1 401.5 16 L 170 247.5 L 167 254.5 L 148 326.5 L 139 355.5 L 138 366.5 Q 139.4 372.6 144.5 375 L 154.5 376 L 223.5 356 L 259.5 347 L 267.5 343 L 498 112.5 Q 508.6 101.6 511.5 83 L 512 512 L 422 511.5 L 432.5 511 L 450.5 505 Q 462.6 498.6 471 488.5 L 482 469.5 L 485 457.5 L 485 330.5 L 480.5 324 L 472.5 321 L 463 325 L 460 330.5 L 460 448.5 L 457 462.5 L 449 475 L 436.5 483 L 423.5 486 L 62.5 486 Q 61 483.5 55.5 485 L 43.5 480 L 33 470.5 Q 27.9 464.1 26 454.5 L 26 107.5 Q 30.2 92.2 41.5 84 L 48.5 80 L 61.5 77 L 180.5 77 L 187 72.5 Q 190.8 69.3 190 61.5 L 183.5 53 L 177.5 51 L 62.5 51 L 61.5 52 L 52.5 52 L 41.5 55 Q 26 61 16 72.5 Q 3.5 85 0.5 107 L 0 0 Z " /><path fill="rgb(0,0,0)" stroke="rgb(0,0,0)" stroke-width="1" opacity="0" d="M 433.5 28 L 446.5 28 L 456.5 32 L 478 52.5 Q 483.8 58.2 486 67.5 L 486 80.5 L 481 92.5 L 463.5 110 L 404 50.5 L 421.5 33 L 433.5 28 Z " /><path fill="rgb(0,0,0)" stroke="rgb(0,0,0)" stroke-width="1" opacity="0" d="M 385.5 69 L 445 127.5 L 259.5 314 L 200 254.5 L 385.5 69 Z " /><path fill="rgb(0,0,0)" stroke="rgb(0,0,0)" stroke-width="1" opacity="0" d="M 187.5 279 L 234.5 327 L 169.5 345 L 170 343.5 L 187.5 279 Z " /><path fill="rgb(0,0,0)" stroke="rgb(0,0,0)" stroke-width="1" opacity="0" d="M 0.5 456 Q 4 481 19.5 494 Q 27.9 502.1 39.5 507 L 53.5 511 L 63 511.5 L 0 512 L 0.5 456 Z " /><path fill="rgb(0,0,0)" stroke="rgb(0,0,0)" stroke-width="1" opacity="0.6705882352941176" d="M 431.5 2 L 435 2.5 L 431.5 3 L 431.5 2 Z " /><path fill="rgb(0,0,0)" stroke="rgb(0,0,0)" stroke-width="1" opacity="0.6705882352941176" d="M 444.5 2 L 448 2.5 L 444.5 3 L 444.5 2 Z " /><path fill="rgb(0,0,0)" stroke="rgb(0,0,0)" stroke-width="1" opacity="0.6705882352941176" d="M 466.5 8 L 467.5 10 L 466.5 8 Z " /><path fill="rgb(0,0,0)" stroke="rgb(0,0,0)" stroke-width="1" opacity="0.6705882352941176" d="M 409.5 10 L 408.5 12 L 409.5 10 Z " /><path fill="rgb(0,0,0)" stroke="rgb(0,0,0)" stroke-width="1" opacity="0.6705882352941176" d="M 471.5 11 L 472.5 13 L 471.5 11 Z " /><path fill="rgb(0,0,0)" stroke="rgb(0,0,0)" stroke-width="1" opacity="0.6705882352941176" d="M 406.5 12 L 405.5 14 L 406.5 12 Z " /><path fill="rgb(0,0,0)" stroke="rgb(0,0,0)" stroke-width="1" opacity="0.6705882352941176" d="M 475.5 14 L 478.5 18 L 475.5 14 Z " /><path fill="rgb(0,0,0)" stroke="rgb(0,0,0)" stroke-width="1" opacity="0.6705882352941176" d="M 401.5 16 L 170.5 248 L 401.5 16 Z " /><path fill="rgb(0,0,0)" stroke="rgb(0,0,0)" stroke-width="1" opacity="0.6705882352941176" d="M 436.5 27 L 444 27.5 L 436.5 28 L 436.5 27 Z " /><path fill="rgb(0,0,0)" stroke="rgb(0,0,0)" stroke-width="1" opacity="0.6705882352941176" d="M 458.5 33 L 460.5 36 L 458.5 33 Z " /><path fill="rgb(0,0,0)" stroke="rgb(0,0,0)" stroke-width="1" opacity="0.6705882352941176" d="M 419.5 34 L 404.5 50 L 419.5 34 Z " /><path fill="rgb(0,0,0)" stroke="rgb(0,0,0)" stroke-width="1" opacity="0.6705882352941176" d="M 496.5 35 L 499.5 39 L 496.5 35 Z " /><path fill="rgb(0,0,0)" stroke="rgb(0,0,0)" stroke-width="1" opacity="0.6705882352941176" d="M 501.5 41 L 502.5 43 L 501.5 41 Z " /><path fill="rgb(0,0,0)" stroke="rgb(0,0,0)" stroke-width="1" opacity="0.6705882352941176" d="M 504.5 46 L 505.5 48 L 504.5 46 Z " /><path fill="rgb(0,0,0)" stroke="rgb(0,0,0)" stroke-width="1" opacity="0.6705882352941176" d="M 62.5 51 L 178 51.5 L 62.5 52 L 62.5 51 Z " /><path fill="rgb(0,0,0)" stroke="rgb(0,0,0)" stroke-width="1" opacity="0.6705882352941176" d="M 404.5 51 L 462.5 110 L 404.5 51 Z " /><path fill="rgb(0,0,0)" stroke="rgb(0,0,0)" stroke-width="1" opacity="0.6705882352941176" d="M 52.5 52 L 56 52.5 L 52.5 53 L 52.5 52 Z " /><path fill="rgb(0,0,0)" stroke="rgb(0,0,0)" stroke-width="1" opacity="0.6705882352941176" d="M 183.5 53 L 184.5 55 L 183.5 53 Z " /><path fill="rgb(0,0,0)" stroke="rgb(0,0,0)" stroke-width="1" opacity="0.6705882352941176" d="M 478.5 53 L 480.5 56 L 478.5 53 Z " /><path fill="rgb(0,0,0)" stroke="rgb(0,0,0)" stroke-width="1" opacity="0.6705882352941176" d="M 186.5 56 L 187.5 58 L 186.5 56 Z " /><path fill="rgb(0,0,0)" stroke="rgb(0,0,0)" stroke-width="1" opacity="0.6705882352941176" d="M 29.5 61 L 28.5 63 L 29.5 61 Z " /><path fill="rgb(0,0,0)" stroke="rgb(0,0,0)" stroke-width="1" opacity="0.6705882352941176" d="M 189.5 61 L 190 66.5 L 189 66.5 L 189.5 61 Z " /><path fill="rgb(0,0,0)" stroke="rgb(0,0,0)" stroke-width="1" opacity="0.6705882352941176" d="M 25.5 64 L 24.5 66 L 25.5 64 Z " /><path fill="rgb(0,0,0)" stroke="rgb(0,0,0)" stroke-width="1" opacity="0.6705882352941176" d="M 511.5 66 L 512 70.5 L 511 70.5 L 511.5 66 Z " /><path fill="rgb(0,0,0)" stroke="rgb(0,0,0)" stroke-width="1" opacity="0.6705882352941176" d="M 20.5 68 L 16.5 73 L 20.5 68 Z " /><path fill="rgb(0,0,0)" stroke="rgb(0,0,0)" stroke-width="1" opacity="0.6705882352941176" d="M 385.5 68 L 200 254.5 L 259.5 314 L 446 128.5 L 259.5 315 L 199 254.5 L 385.5 68 Z " /><path fill="rgb(0,0,0)" stroke="rgb(0,0,0)" stroke-width="1" opacity="0.6705882352941176" d="M 486.5 71 L 487 77.5 L 486 77.5 L 486.5 71 Z " /><path fill="rgb(0,0,0)" stroke="rgb(0,0,0)" stroke-width="1" opacity="0.6705882352941176" d="M 186.5 72 L 185.5 74 L 186.5 72 Z " /><path fill="rgb(0,0,0)" stroke="rgb(0,0,0)" stroke-width="1" opacity="0.6705882352941176" d="M 13.5 76 L 12.5 78 L 13.5 76 Z " /><path fill="rgb(0,0,0)" stroke="rgb(0,0,0)" stroke-width="1" opacity="0.6705882352941176" d="M 56.5 77 L 61 77.5 L 56.5 78 L 56.5 77 Z " /><path fill="rgb(0,0,0)" stroke="rgb(0,0,0)" stroke-width="1" opacity="0.6705882352941176" d="M 511.5 78 L 512 82.5 L 511 82.5 L 511.5 78 Z " /><path fill="rgb(0,0,0)" stroke="rgb(0,0,0)" stroke-width="1" opacity="0.6705882352941176" d="M 47.5 80 L 46.5 82 L 47.5 80 Z " /><path fill="rgb(0,0,0)" stroke="rgb(0,0,0)" stroke-width="1" opacity="0.6705882352941176" d="M 9.5 82 L 8.5 84 L 9.5 82 Z " /><path fill="rgb(0,0,0)" stroke="rgb(0,0,0)" stroke-width="1" opacity="0.6705882352941176" d="M 38.5 86 L 35.5 90 L 38.5 86 Z " /><path fill="rgb(0,0,0)" stroke="rgb(0,0,0)" stroke-width="1" opacity="0.6705882352941176" d="M 32.5 93 L 31.5 95 L 32.5 93 Z " /><path fill="rgb(0,0,0)" stroke="rgb(0,0,0)" stroke-width="1" opacity="0.6705882352941176" d="M 478.5 95 L 464.5 110 L 478.5 95 Z " /><path fill="rgb(0,0,0)" stroke="rgb(0,0,0)" stroke-width="1" opacity="0.6705882352941176" d="M 503.5 104 L 502.5 106 L 503.5 104 Z " /><path fill="rgb(0,0,0)" stroke="rgb(0,0,0)" stroke-width="1" opacity="0.6705882352941176" d="M 0.5 107 L 1 111.5 L 0 111.5 L 0.5 107 Z " /><path fill="rgb(0,0,0)" stroke="rgb(0,0,0)" stroke-width="1" opacity="0.6705882352941176" d="M 501.5 107 L 500.5 109 L 501.5 107 Z " /><path fill="rgb(0,0,0)" stroke="rgb(0,0,0)" stroke-width="1" opacity="0.6705882352941176" d="M 25.5 112 L 26 450.5 L 25 450.5 L 25.5 112 Z " /><path fill="rgb(0,0,0)" stroke="rgb(0,0,0)" stroke-width="1" opacity="0.6705882352941176" d="M 497.5 112 L 267.5 343 L 497.5 112 Z " /><path fill="rgb(0,0,0)" stroke="rgb(0,0,0)" stroke-width="1" opacity="0.6705882352941176" d="M 188.5 279 L 234.5 326 L 188.5 279 Z " /><path fill="rgb(0,0,0)" stroke="rgb(0,0,0)" stroke-width="1" opacity="0.6705882352941176" d="M 476.5 322 L 479 323.5 L 477.5 323 L 476.5 322 Z " /><path fill="rgb(0,0,0)" stroke="rgb(0,0,0)" stroke-width="1" opacity="0.6705882352941176" d="M 480.5 324 L 481.5 326 L 480.5 324 Z " /><path fill="rgb(0,0,0)" stroke="rgb(0,0,0)" stroke-width="1" opacity="0.6705882352941176" d="M 169.5 342 L 170 344 L 172 344.5 L 170.5 345 L 169.5 342 Z " /><path fill="rgb(0,0,0)" stroke="rgb(0,0,0)" stroke-width="1" opacity="0.6705882352941176" d="M 138.5 359 L 139 361.5 L 138 361.5 L 138.5 359 Z " /><path fill="rgb(0,0,0)" stroke="rgb(0,0,0)" stroke-width="1" opacity="0.6705882352941176" d="M 139.5 368 L 141 370.5 L 139 369.5 L 139.5 368 Z " /><path fill="rgb(0,0,0)" stroke="rgb(0,0,0)" stroke-width="1" opacity="0.6705882352941176" d="M 143.5 373 L 146 374.5 L 144.5 375 L 143.5 373 Z " /><path fill="rgb(0,0,0)" stroke="rgb(0,0,0)" stroke-width="1" opacity="0.6705882352941176" d="M 152.5 375 L 155 375.5 L 152.5 376 L 152.5 375 Z " /><path fill="rgb(0,0,0)" stroke="rgb(0,0,0)" stroke-width="1" opacity="0.6705882352941176" d="M 459.5 449 L 460 453.5 L 459 453.5 L 459.5 449 Z " /><path fill="rgb(0,0,0)" stroke="rgb(0,0,0)" stroke-width="1" opacity="0.6705882352941176" d="M 0.5 451 L 1 455.5 L 0 455.5 L 0.5 451 Z " /><path fill="rgb(0,0,0)" stroke="rgb(0,0,0)" stroke-width="1" opacity="0.6705882352941176" d="M 484.5 455 L 485 457.5 L 484 457.5 L 484.5 455 Z " /><path fill="rgb(0,0,0)" stroke="rgb(0,0,0)" stroke-width="1" opacity="0.6705882352941176" d="M 31.5 468 L 32.5 470 L 31.5 468 Z " /><path fill="rgb(0,0,0)" stroke="rgb(0,0,0)" stroke-width="1" opacity="0.6705882352941176" d="M 451.5 471 L 449.5 474 L 451.5 471 Z " /><path fill="rgb(0,0,0)" stroke="rgb(0,0,0)" stroke-width="1" opacity="0.6705882352941176" d="M 35.5 473 L 38.5 477 L 35.5 473 Z " /><path fill="rgb(0,0,0)" stroke="rgb(0,0,0)" stroke-width="1" opacity="0.6705882352941176" d="M 447.5 475 L 445.5 478 L 447.5 475 Z " /><path fill="rgb(0,0,0)" stroke="rgb(0,0,0)" stroke-width="1" opacity="0.6705882352941176" d="M 41.5 478 L 42.5 480 L 41.5 478 Z " /><path fill="rgb(0,0,0)" stroke="rgb(0,0,0)" stroke-width="1" opacity="0.6705882352941176" d="M 8.5 479 L 9.5 481 L 8.5 479 Z " /><path fill="rgb(0,0,0)" stroke="rgb(0,0,0)" stroke-width="1" opacity="0.6705882352941176" d="M 440.5 480 L 439.5 482 L 440.5 480 Z " /><path fill="rgb(0,0,0)" stroke="rgb(0,0,0)" stroke-width="1" opacity="0.6705882352941176" d="M 473.5 484 L 472.5 486 L 473.5 484 Z " /><path fill="rgb(0,0,0)" stroke="rgb(0,0,0)" stroke-width="1" opacity="0.6705882352941176" d="M 12.5 485 L 13.5 487 L 12.5 485 Z " /><path fill="rgb(0,0,0)" stroke="rgb(0,0,0)" stroke-width="1" opacity="0.6705882352941176" d="M 57.5 485 L 62 485.5 L 57.5 486 L 57.5 485 Z " /><path fill="rgb(0,0,0)" stroke="rgb(0,0,0)" stroke-width="1" opacity="0.6705882352941176" d="M 424.5 485 L 428 485.5 L 424.5 486 L 424.5 485 Z " /><path fill="rgb(0,0,0)" stroke="rgb(0,0,0)" stroke-width="1" opacity="0.6705882352941176" d="M 470.5 488 L 462.5 497 L 470.5 488 Z " /><path fill="rgb(0,0,0)" stroke="rgb(0,0,0)" stroke-width="1" opacity="0.6705882352941176" d="M 17.5 491 L 19.5 494 L 17.5 491 Z " /><path fill="rgb(0,0,0)" stroke="rgb(0,0,0)" stroke-width="1" opacity="0.6705882352941176" d="M 24.5 497 L 25.5 499 L 24.5 497 Z " /><path fill="rgb(0,0,0)" stroke="rgb(0,0,0)" stroke-width="1" opacity="0.6705882352941176" d="M 459.5 498 L 458.5 500 L 459.5 498 Z " /><path fill="rgb(0,0,0)" stroke="rgb(0,0,0)" stroke-width="1" opacity="0.6705882352941176" d="M 53.5 510 L 56 510.5 L 53.5 511 L 53.5 510 Z " /><path fill="rgb(0,0,0)" stroke="rgb(0,0,0)" stroke-width="1" opacity="0.6705882352941176" d="M 429.5 510 L 433 510.5 L 429.5 511 L 429.5 510 Z " /><path fill="rgb(0,0,0)" stroke="rgb(0,0,0)" stroke-width="1" opacity="0.6705882352941176" d="M 63.5 511 L 422 511.5 L 63.5 512 L 63.5 511 Z " /><path fill="rgb(0,0,0)" stroke="rgb(0,0,0)" stroke-width="1" opacity="0.996078431372549" d="M 435.5 2 L 439 2.5 L 435.5 3 L 435.5 2 Z " /><path fill="rgb(0,0,0)" stroke="rgb(0,0,0)" stroke-width="1" opacity="0.996078431372549" d="M 441.5 2 L 444 2.5 L 441.5 3 L 441.5 2 Z " /><path fill="rgb(0,0,0)" stroke="rgb(0,0,0)" stroke-width="1" opacity="0.996078431372549" d="M 473.5 13 L 474.5 15 L 473.5 13 Z " /><path fill="rgb(0,0,0)" stroke="rgb(0,0,0)" stroke-width="1" opacity="0.996078431372549" d="M 404.5 14 L 402.5 17 L 404.5 14 Z " /><path fill="rgb(0,0,0)" stroke="rgb(0,0,0)" stroke-width="1" opacity="0.996078431372549" d="M 479.5 18 L 495.5 35 L 479.5 18 Z " /><path fill="rgb(0,0,0)" stroke="rgb(0,0,0)" stroke-width="1" opacity="0.996078431372549" d="M 421.5 32 L 420.5 34 L 421.5 32 Z " /><path fill="rgb(0,0,0)" stroke="rgb(0,0,0)" stroke-width="1" opacity="0.996078431372549" d="M 461.5 35 L 478.5 53 L 461.5 35 Z " /><path fill="rgb(0,0,0)" stroke="rgb(0,0,0)" stroke-width="1" opacity="0.996078431372549" d="M 499.5 39 L 500.5 41 L 499.5 39 Z " /><path fill="rgb(0,0,0)" stroke="rgb(0,0,0)" stroke-width="1" opacity="0.996078431372549" d="M 23.5 66 L 21.5 69 L 23.5 66 Z " /><path fill="rgb(0,0,0)" stroke="rgb(0,0,0)" stroke-width="1" opacity="0.996078431372549" d="M 386.5 68 L 445.5 128 L 386.5 68 Z " /><path fill="rgb(0,0,0)" stroke="rgb(0,0,0)" stroke-width="1" opacity="0.996078431372549" d="M 187.5 70 L 186.5 72 L 187.5 70 Z " /><path fill="rgb(0,0,0)" stroke="rgb(0,0,0)" stroke-width="1" opacity="0.996078431372549" d="M 511.5 71 L 512 77.5 L 511 77.5 L 511.5 71 Z " /><path fill="rgb(0,0,0)" stroke="rgb(0,0,0)" stroke-width="1" opacity="0.996078431372549" d="M 17.5 72 L 14.5 76 L 17.5 72 Z " /><path fill="rgb(0,0,0)" stroke="rgb(0,0,0)" stroke-width="1" opacity="0.996078431372549" d="M 12.5 78 L 11.5 80 L 12.5 78 Z " /><path fill="rgb(0,0,0)" stroke="rgb(0,0,0)" stroke-width="1" opacity="0.996078431372549" d="M 41.5 83 L 39.5 86 L 41.5 83 Z " /><path fill="rgb(0,0,0)" stroke="rgb(0,0,0)" stroke-width="1" opacity="0.996078431372549" d="M 34.5 90 L 32.5 93 L 34.5 90 Z " /><path fill="rgb(0,0,0)" stroke="rgb(0,0,0)" stroke-width="1" opacity="0.996078431372549" d="M 481.5 92 L 479.5 95 L 481.5 92 Z " /><path fill="rgb(0,0,0)" stroke="rgb(0,0,0)" stroke-width="1" opacity="0.996078431372549" d="M 499.5 109 L 496.5 113 L 499.5 109 Z " /><path fill="rgb(0,0,0)" stroke="rgb(0,0,0)" stroke-width="1" opacity="0.996078431372549" d="M 0.5 112 L 1 114.5 L 0 114.5 L 0.5 112 Z " /><path fill="rgb(0,0,0)" stroke="rgb(0,0,0)" stroke-width="1" opacity="0.996078431372549" d="M 199.5 255 L 258.5 315 L 199.5 255 Z " /><path fill="rgb(0,0,0)" stroke="rgb(0,0,0)" stroke-width="1" opacity="0.996078431372549" d="M 463.5 326 L 462.5 328 L 463.5 326 Z " /><path fill="rgb(0,0,0)" stroke="rgb(0,0,0)" stroke-width="1" opacity="0.996078431372549" d="M 138.5 362 L 139 364.5 L 138 364.5 L 138.5 362 Z " /><path fill="rgb(0,0,0)" stroke="rgb(0,0,0)" stroke-width="1" opacity="0.996078431372549" d="M 141.5 371 L 142.5 373 L 141.5 371 Z " /><path fill="rgb(0,0,0)" stroke="rgb(0,0,0)" stroke-width="1" opacity="0.996078431372549" d="M 149.5 375 L 152 375.5 L 149.5 376 L 149.5 375 Z " /><path fill="rgb(0,0,0)" stroke="rgb(0,0,0)" stroke-width="1" opacity="0.996078431372549" d="M 0.5 448 L 1 450.5 L 0 450.5 L 0.5 448 Z " /><path fill="rgb(0,0,0)" stroke="rgb(0,0,0)" stroke-width="1" opacity="0.996078431372549" d="M 453.5 469 L 452.5 471 L 453.5 469 Z " /><path fill="rgb(0,0,0)" stroke="rgb(0,0,0)" stroke-width="1" opacity="0.996078431372549" d="M 32.5 470 L 34.5 473 L 32.5 470 Z " /><path fill="rgb(0,0,0)" stroke="rgb(0,0,0)" stroke-width="1" opacity="0.996078431372549" d="M 449.5 474 L 448.5 476 L 449.5 474 Z " /><path fill="rgb(0,0,0)" stroke="rgb(0,0,0)" stroke-width="1" opacity="0.996078431372549" d="M 39.5 477 L 40.5 479 L 39.5 477 Z " /><path fill="rgb(0,0,0)" stroke="rgb(0,0,0)" stroke-width="1" opacity="0.996078431372549" d="M 444.5 478 L 443.5 480 L 444.5 478 Z " /><path fill="rgb(0,0,0)" stroke="rgb(0,0,0)" stroke-width="1" opacity="0.996078431372549" d="M 474.5 482 L 473.5 484 L 474.5 482 Z " /><path fill="rgb(0,0,0)" stroke="rgb(0,0,0)" stroke-width="1" opacity="0.996078431372549" d="M 11.5 483 L 12.5 485 L 11.5 483 Z " /><path fill="rgb(0,0,0)" stroke="rgb(0,0,0)" stroke-width="1" opacity="0.996078431372549" d="M 471.5 486 L 470.5 488 L 471.5 486 Z " /><path fill="rgb(0,0,0)" stroke="rgb(0,0,0)" stroke-width="1" opacity="0.996078431372549" d="M 14.5 487 L 17.5 491 L 14.5 487 Z " /><path fill="rgb(0,0,0)" stroke="rgb(0,0,0)" stroke-width="1" opacity="0.996078431372549" d="M 20.5 493 L 23.5 497 L 20.5 493 Z " /><path fill="rgb(0,0,0)" stroke="rgb(0,0,0)" stroke-width="1" opacity="0.996078431372549" d="M 461.5 496 L 460.5 498 L 461.5 496 Z " /><path fill="rgb(0,0,0)" stroke="rgb(0,0,0)" stroke-width="1" opacity="0.996078431372549" d="M 26.5 498 L 27.5 500 L 26.5 498 Z " /><path fill="rgb(0,0,0)" stroke="rgb(0,0,0)" stroke-width="1" opacity="0.996078431372549" d="M 457.5 499 L 456.5 501 L 457.5 499 Z " /><path fill="rgb(0,0,0)" stroke="rgb(0,0,0)" stroke-width="1" opacity="1" d="M 439.5 2 L 457.5 5 L 468.5 10 L 475.5 15 L 499 38.5 L 509 56.5 L 511 64.5 L 511 84.5 Q 506.8 102.3 496 113.5 L 266.5 343 L 256.5 347 L 155.5 375 L 146.5 375 L 140 369.5 Q 137.5 366 139 358.5 L 159 289.5 L 168 253.5 L 171 247.5 L 401.5 17 L 419.5 6 L 429.5 3 L 438.5 3 L 439.5 2 Z M 435 27 L 422 32 L 403 51 L 464 111 L 482 93 L 487 80 Q 488 61 479 53 L 458 32 L 446 27 L 435 27 Z M 386 68 L 199 256 L 260 315 L 446 128 L 386 68 Z M 188 278 L 185 284 L 169 345 L 236 327 L 188 278 Z " /><path fill="rgb(0,0,0)" stroke="rgb(0,0,0)" stroke-width="1" opacity="1" d="M 57.5 52 L 179.5 52 L 187 57.5 Q 190 60.5 189 67.5 L 184.5 74 L 176.5 77 L 55.5 77 Q 39.8 80.8 32 92.5 L 28 99.5 L 25 110.5 L 25 452.5 Q 28 470.5 40.5 479 Q 46.9 484.1 56.5 486 L 429.5 486 Q 442.3 482.8 450 474.5 Q 457.1 467.1 460 455.5 L 460 333.5 L 464 325 L 470.5 322 L 474.5 322 L 482 326.5 L 485 332.5 L 485 452.5 L 483 463.5 L 477 478.5 L 462.5 496 L 446.5 506 L 427.5 511 L 57.5 511 L 47.5 509 L 34.5 504 L 18 491.5 Q 9.9 483.1 5 471.5 L 2 462.5 L 1 448.5 L 0 447.5 L 0 115.5 L 1 114.5 L 2 100.5 L 5 91.5 Q 10.8 78.3 20.5 69 L 38.5 57 L 57.5 52 Z " /></svg>