<?xml version="1.0" standalone="no"?>
<!DOCTYPE svg PUBLIC "-//W3C//DTD SVG 20010904//EN"
 "http://www.w3.org/TR/2001/REC-SVG-20010904/DTD/svg10.dtd">
<svg version="1.0" xmlns="http://www.w3.org/2000/svg"
 width="500.000000pt" height="500.000000pt" viewBox="0 0 500.000000 500.000000"
 preserveAspectRatio="xMidYMid meet">

<g transform="translate(0.000000,500.000000) scale(0.100000,-0.100000)"
fill="#000000" stroke="none">
<path d="M2305 4894 c-16 -2 -73 -9 -125 -15 -842 -96 -1610 -668 -1943 -1450
-354 -830 -224 -1760 346 -2469 34 -41 111 -125 173 -186 384 -383 866 -618
1424 -695 55 -8 186 -14 310 -14 124 0 255 6 310 14 718 99 1320 467 1722
1051 412 597 527 1377 307 2066 -125 391 -317 704 -609 994 -375 372 -846 606
-1385 686 -95 14 -467 27 -530 18z m535 -49 c973 -141 1771 -859 2001 -1800
51 -210 63 -318 63 -565 0 -247 -12 -355 -63 -565 -142 -580 -508 -1095 -1015
-1427 -311 -203 -643 -326 -1026 -380 -124 -17 -496 -17 -620 0 -721 101
-1331 481 -1723 1077 -185 282 -309 609 -364 960 -24 153 -24 517 0 670 107
686 476 1265 1050 1649 340 227 699 352 1152 400 87 9 435 -3 545 -19z"/>
<path d="M3410 3871 c-14 -5 -41 -16 -60 -26 -37 -18 -632 -606 -1072 -1058
l-261 -268 -84 -300 c-45 -165 -83 -311 -83 -325 0 -30 33 -64 62 -64 13 0
160 38 328 85 l304 84 653 653 c730 731 698 692 698 833 0 67 -4 89 -28 136
-38 79 -185 220 -252 242 -50 17 -160 21 -205 8z m185 -157 c53 -35 133 -122
151 -161 31 -70 7 -149 -68 -220 l-43 -43 -165 165 -164 165 43 44 c57 58 94
75 157 76 39 0 60 -6 89 -26z m-572 -1036 l-513 -513 -61 60 c-33 33 -106 109
-162 168 l-101 108 510 510 509 509 165 -165 165 -165 -512 -512z m-656 -579
c-18 -10 -340 -99 -344 -95 -3 3 77 302 93 345 3 10 47 -27 134 -114 84 -84
125 -132 117 -136z"/>
<path d="M1331 3594 c-96 -34 -165 -97 -210 -194 l-26 -55 0 -1000 0 -1000 28
-57 c38 -77 96 -134 175 -171 l67 -32 1055 0 1055 0 57 23 c71 29 147 99 184
172 l29 55 0 379 0 379 -27 20 c-23 17 -31 18 -56 8 -16 -7 -34 -24 -41 -37
-7 -17 -11 -132 -11 -360 0 -279 -3 -341 -15 -372 -20 -47 -50 -78 -100 -105
l-40 -22 -1036 0 -1036 0 -48 30 c-36 22 -57 45 -77 84 l-28 53 0 957 c0 909
1 958 19 996 10 22 31 52 47 67 60 56 73 58 442 58 328 0 340 1 366 21 32 25
35 70 6 99 -19 19 -33 20 -377 20 -297 -1 -366 -4 -402 -16z"/>
</g>
</svg>
