<svg width="40" height="40" viewBox="0 0 40 40" fill="none" xmlns="http://www.w3.org/2000/svg">
<g clip-path="url(#clip0_541_700)">
<path d="M10.168 13.592L14.072 23.656C14.232 24.0613 14.4133 24.3333 14.616 24.472C14.8187 24.6 15.0053 24.6693 15.176 24.68V25C14.9627 24.9787 14.7013 24.968 14.392 24.968C14.0827 24.9573 13.7733 24.952 13.464 24.952C13.048 24.952 12.6587 24.9573 12.296 24.968C11.9333 24.968 11.64 24.9787 11.416 25V24.68C11.96 24.6587 12.3067 24.568 12.456 24.408C12.6053 24.2373 12.5733 23.88 12.36 23.336L9.384 15.384L9.64 15.176L6.856 22.408C6.68533 22.8347 6.584 23.1973 6.552 23.496C6.52 23.784 6.54667 24.0133 6.632 24.184C6.728 24.3547 6.88267 24.4773 7.096 24.552C7.32 24.6267 7.59733 24.6693 7.928 24.68V25C7.62933 24.9787 7.31467 24.968 6.984 24.968C6.664 24.9573 6.36533 24.952 6.088 24.952C5.82133 24.952 5.592 24.9573 5.4 24.968C5.21867 24.968 5.048 24.9787 4.888 25V24.68C5.10133 24.6267 5.32 24.504 5.544 24.312C5.768 24.1093 5.97067 23.768 6.152 23.288L9.912 13.592C9.95467 13.592 9.99733 13.592 10.04 13.592C10.0827 13.592 10.1253 13.592 10.168 13.592ZM12.12 20.392V20.712H7.352L7.512 20.392H12.12ZM22.8221 12.456V23.256C22.8221 23.736 22.9075 24.0933 23.0781 24.328C23.2595 24.552 23.5795 24.664 24.0381 24.664V25C23.7075 24.968 23.3768 24.952 23.0461 24.952C22.7368 24.952 22.4381 24.968 22.1501 25C21.8728 25.032 21.6168 25.0907 21.3821 25.176V14.376C21.3821 13.896 21.2968 13.544 21.1261 13.32C20.9555 13.0853 20.6355 12.968 20.1661 12.968V12.632C20.5075 12.664 20.8381 12.68 21.1581 12.68C21.4675 12.68 21.7608 12.664 22.0381 12.632C22.3261 12.5893 22.5875 12.5307 22.8221 12.456ZM19.4621 16.536C19.9315 16.536 20.3688 16.648 20.7741 16.872C21.1901 17.096 21.4675 17.48 21.6061 18.024L21.3981 18.184C21.2488 17.736 21.0141 17.4107 20.6941 17.208C20.3848 17.0053 20.0168 16.904 19.5901 16.904C18.9608 16.904 18.4328 17.2293 18.0061 17.88C17.5901 18.5307 17.3875 19.5333 17.3981 20.888C17.3981 21.752 17.4781 22.472 17.6381 23.048C17.8088 23.6133 18.0541 24.04 18.3741 24.328C18.7048 24.6053 19.1048 24.744 19.5741 24.744C20.0221 24.744 20.4275 24.552 20.7901 24.168C21.1528 23.784 21.3715 23.2187 21.4461 22.472L21.6381 22.696C21.5528 23.5067 21.2915 24.1307 20.8541 24.568C20.4275 25.0053 19.8461 25.224 19.1101 25.224C18.4488 25.224 17.8675 25.064 17.3661 24.744C16.8755 24.424 16.4968 23.944 16.2301 23.304C15.9741 22.664 15.8461 21.8587 15.8461 20.888C15.8461 19.9173 16.0115 19.112 16.3421 18.472C16.6835 17.8213 17.1261 17.336 17.6701 17.016C18.2248 16.696 18.8221 16.536 19.4621 16.536ZM32.119 12.456V23.256C32.119 23.736 32.2043 24.0933 32.375 24.328C32.5563 24.552 32.8763 24.664 33.335 24.664V25C33.0043 24.968 32.6737 24.952 32.343 24.952C32.0337 24.952 31.735 24.968 31.447 25C31.1697 25.032 30.9137 25.0907 30.679 25.176V14.376C30.679 13.896 30.5937 13.544 30.423 13.32C30.2523 13.0853 29.9323 12.968 29.463 12.968V12.632C29.8043 12.664 30.135 12.68 30.455 12.68C30.7643 12.68 31.0577 12.664 31.335 12.632C31.623 12.5893 31.8843 12.5307 32.119 12.456ZM28.759 16.536C29.2283 16.536 29.6657 16.648 30.071 16.872C30.487 17.096 30.7643 17.48 30.903 18.024L30.695 18.184C30.5457 17.736 30.311 17.4107 29.991 17.208C29.6817 17.0053 29.3137 16.904 28.887 16.904C28.2577 16.904 27.7297 17.2293 27.303 17.88C26.887 18.5307 26.6843 19.5333 26.695 20.888C26.695 21.752 26.775 22.472 26.935 23.048C27.1057 23.6133 27.351 24.04 27.671 24.328C28.0017 24.6053 28.4017 24.744 28.871 24.744C29.319 24.744 29.7243 24.552 30.087 24.168C30.4497 23.784 30.6683 23.2187 30.743 22.472L30.935 22.696C30.8497 23.5067 30.5883 24.1307 30.151 24.568C29.7243 25.0053 29.143 25.224 28.407 25.224C27.7457 25.224 27.1643 25.064 26.663 24.744C26.1723 24.424 25.7937 23.944 25.527 23.304C25.271 22.664 25.143 21.8587 25.143 20.888C25.143 19.9173 25.3083 19.112 25.639 18.472C25.9803 17.8213 26.423 17.336 26.967 17.016C27.5217 16.696 28.119 16.536 28.759 16.536Z" fill="black"/>
<path d="M20 39.75C30.9076 39.75 39.75 30.9076 39.75 20C39.75 9.09238 30.9076 0.25 20 0.25C9.09238 0.25 0.25 9.09238 0.25 20C0.25 30.9076 9.09238 39.75 20 39.75Z" stroke="black" stroke-width="0.5"/>
</g>
<defs>
<clipPath id="clip0_541_700">
<rect width="40" height="40" fill="white"/>
</clipPath>
</defs>
</svg>
