<svg width="40" height="40" viewBox="0 0 40 40" fill="none" xmlns="http://www.w3.org/2000/svg">
<path d="M15.72 13.672V13.992C15.3573 14.0027 15.08 14.056 14.888 14.152C14.7067 14.248 14.584 14.4027 14.52 14.616C14.456 14.8293 14.424 15.1333 14.424 15.528V25.08C14.36 25.08 14.296 25.08 14.232 25.08C14.1787 25.08 14.12 25.08 14.056 25.08L7.336 14.696V23.144C7.336 23.528 7.368 23.832 7.432 24.056C7.50667 24.2693 7.64533 24.424 7.848 24.52C8.06133 24.6053 8.376 24.6587 8.792 24.68V25C8.6 24.9787 8.34933 24.968 8.04 24.968C7.73067 24.9573 7.43733 24.952 7.16 24.952C6.89333 24.952 6.62133 24.9573 6.344 24.968C6.07733 24.968 5.85333 24.9787 5.672 25V24.68C6.03467 24.6587 6.30667 24.6053 6.488 24.52C6.68 24.424 6.808 24.2693 6.872 24.056C6.936 23.832 6.968 23.528 6.968 23.144V15.368C6.968 14.9733 6.936 14.6853 6.872 14.504C6.808 14.312 6.68 14.184 6.488 14.12C6.30667 14.0453 6.03467 14.0027 5.672 13.992V13.672C5.85333 13.6827 6.07733 13.6933 6.344 13.704C6.62133 13.7147 6.89333 13.72 7.16 13.72C7.39467 13.72 7.61867 13.7147 7.832 13.704C8.04533 13.6933 8.23733 13.6827 8.408 13.672L14.056 22.376V15.528C14.056 15.1333 14.0187 14.8293 13.944 14.616C13.88 14.4027 13.7413 14.248 13.528 14.152C13.3253 14.056 13.016 14.0027 12.6 13.992V13.672C12.792 13.6827 13.0427 13.6933 13.352 13.704C13.672 13.7147 13.9653 13.72 14.232 13.72C14.5093 13.72 14.7813 13.7147 15.048 13.704C15.3253 13.6933 15.5493 13.6827 15.72 13.672ZM20.3676 16.536C21.3063 16.536 22.037 16.824 22.5596 17.4C23.093 17.9653 23.3596 18.8507 23.3596 20.056H17.7116L17.6956 19.752H21.8236C21.845 19.2293 21.8023 18.7493 21.6956 18.312C21.589 17.864 21.4183 17.5067 21.1836 17.24C20.9596 16.9733 20.6663 16.84 20.3036 16.84C19.813 16.84 19.3756 17.0853 18.9916 17.576C18.6183 18.0667 18.3943 18.8453 18.3196 19.912L18.3676 19.976C18.3463 20.136 18.3303 20.312 18.3196 20.504C18.309 20.696 18.3036 20.888 18.3036 21.08C18.3036 21.8053 18.421 22.4293 18.6556 22.952C18.8903 23.4747 19.1943 23.8747 19.5676 24.152C19.9516 24.4187 20.3463 24.552 20.7516 24.552C21.0716 24.552 21.3756 24.504 21.6636 24.408C21.9516 24.3013 22.2183 24.1307 22.4636 23.896C22.709 23.6613 22.9223 23.3467 23.1036 22.952L23.4236 23.08C23.3063 23.432 23.1143 23.7733 22.8476 24.104C22.581 24.4347 22.245 24.7067 21.8396 24.92C21.4343 25.1227 20.965 25.224 20.4316 25.224C19.6636 25.224 19.0023 25.048 18.4476 24.696C17.9036 24.344 17.4823 23.8587 17.1836 23.24C16.8956 22.6107 16.7516 21.8907 16.7516 21.08C16.7516 20.1413 16.901 19.336 17.1996 18.664C17.4983 17.9813 17.9196 17.4587 18.4636 17.096C19.0076 16.7227 19.6423 16.536 20.3676 16.536ZM27.5349 16.76V17.096C27.2682 17.096 27.0335 17.1173 26.8309 17.16C26.6282 17.192 26.4949 17.2987 26.4309 17.48C26.3669 17.6613 26.4149 17.9813 26.5749 18.44L28.2389 23.208L28.1269 23.192L30.4789 16.696L30.7989 16.824L27.8709 25.08C27.8282 25.08 27.7855 25.08 27.7429 25.08C27.7002 25.08 27.6522 25.08 27.5989 25.08L24.9749 17.992C24.8042 17.5653 24.6335 17.3093 24.4629 17.224C24.3029 17.1387 24.1642 17.096 24.0469 17.096V16.76C24.2602 16.792 24.4789 16.8187 24.7029 16.84C24.9375 16.8507 25.1882 16.856 25.4549 16.856C25.7855 16.856 26.1322 16.8453 26.4949 16.824C26.8682 16.8027 27.2149 16.7813 27.5349 16.76ZM36.3189 16.76V17.08C36.1162 17.1013 35.9242 17.192 35.7429 17.352C35.5722 17.5013 35.4175 17.784 35.2789 18.2L32.9589 25.08C32.9162 25.08 32.8735 25.08 32.8309 25.08C32.7882 25.08 32.7402 25.08 32.6869 25.08L30.1109 18.536L30.4789 16.696C30.5429 16.696 30.6015 16.696 30.6549 16.696C30.7189 16.696 30.7829 16.696 30.8469 16.696L33.3429 23.304L33.2149 23.4L34.7989 18.584C34.9162 18.2213 34.9589 17.9387 34.9269 17.736C34.9055 17.5227 34.7989 17.368 34.6069 17.272C34.4255 17.1653 34.1429 17.1013 33.7589 17.08V16.76C33.9509 16.7707 34.1162 16.7813 34.2549 16.792C34.3935 16.792 34.5269 16.7973 34.6549 16.808C34.7935 16.808 34.9429 16.808 35.1029 16.808C35.3482 16.808 35.5669 16.8027 35.7589 16.792C35.9615 16.7813 36.1482 16.7707 36.3189 16.76Z" fill="black"/>
<circle cx="20" cy="20" r="19.75" stroke="black" stroke-width="0.5"/>
</svg>
