<?xml version="1.0" standalone="no"?>
<!DOCTYPE svg PUBLIC "-//W3C//DTD SVG 20010904//EN"
 "http://www.w3.org/TR/2001/REC-SVG-20010904/DTD/svg10.dtd">
<svg version="1.0" xmlns="http://www.w3.org/2000/svg"
 width="500.000000pt" height="500.000000pt" viewBox="0 0 500.000000 500.000000"
 preserveAspectRatio="xMidYMid meet">

<g transform="translate(0.000000,500.000000) scale(0.100000,-0.100000)"
fill="#000000" stroke="none">
<path d="M2305 4894 c-16 -2 -73 -9 -125 -15 -842 -96 -1610 -668 -1943 -1450
-354 -830 -224 -1760 346 -2469 34 -41 111 -125 173 -186 384 -383 866 -618
1424 -695 55 -8 186 -14 310 -14 124 0 255 6 310 14 718 99 1320 467 1722
1051 412 597 527 1377 307 2066 -125 391 -317 704 -609 994 -375 372 -846 606
-1385 686 -95 14 -467 27 -530 18z m535 -49 c973 -141 1771 -859 2001 -1800
51 -210 63 -318 63 -565 0 -247 -12 -355 -63 -565 -142 -580 -508 -1095 -1015
-1427 -311 -203 -643 -326 -1026 -380 -124 -17 -496 -17 -620 0 -721 101
-1331 481 -1723 1077 -185 282 -309 609 -364 960 -24 153 -24 517 0 670 107
686 476 1265 1050 1649 340 227 699 352 1152 400 87 9 435 -3 545 -19z"/>
<path d="M547 3193 c-18 -17 -3 -31 41 -38 67 -10 131 -40 175 -83 l37 -36 0
-482 c0 -283 -4 -493 -10 -508 -14 -37 -52 -57 -120 -63 -49 -5 -60 -9 -58
-22 3 -14 32 -16 236 -19 227 -2 232 -2 232 18 0 16 -7 20 -37 21 -56 0 -103
20 -127 52 -20 28 -21 41 -24 420 -2 216 -2 410 0 432 l3 40 440 -503 c276
-316 445 -502 455 -500 13 3 16 72 20 583 3 319 9 588 14 598 13 26 61 48 123
54 42 5 53 9 51 22 -3 14 -32 16 -236 19 -227 2 -232 2 -232 -18 0 -16 7 -20
33 -20 53 0 105 -19 126 -46 29 -37 32 -92 29 -488 l-3 -359 -334 384 c-184
211 -368 421 -409 467 l-74 82 -172 0 c-95 0 -176 -3 -179 -7z"/>
<path d="M2455 2814 c-96 -15 -175 -56 -242 -125 -80 -84 -113 -180 -113 -330
0 -197 73 -325 230 -402 59 -29 73 -32 160 -32 83 0 102 3 151 28 97 47 194
171 215 274 5 23 2 32 -11 37 -10 3 -18 5 -19 4 -16 -42 -59 -107 -85 -130
-51 -45 -97 -61 -176 -62 -170 -1 -301 133 -321 328 l-7 66 313 0 313 0 -6 56
c-12 117 -93 222 -202 263 -55 21 -149 32 -200 25z m52 -75 c80 -21 143 -102
143 -186 l0 -23 -206 0 -206 0 7 33 c9 42 53 115 86 139 26 19 93 47 117 48 7
0 34 -5 59 -11z"/>
<path d="M2930 2770 c0 -11 5 -20 11 -20 24 0 79 -33 96 -58 9 -15 85 -193
169 -397 125 -308 154 -371 172 -373 18 -3 37 31 148 257 70 144 130 261 133
261 3 0 55 -117 115 -260 96 -229 111 -260 131 -260 19 0 39 41 175 370 84
203 163 385 176 404 13 19 39 40 59 47 22 8 35 20 35 31 0 17 -12 18 -146 18
-132 0 -145 -2 -142 -17 2 -10 16 -20 35 -24 42 -8 63 -26 63 -53 -1 -11 -47
-136 -105 -276 -91 -224 -105 -252 -113 -230 -5 14 -53 127 -106 252 -53 125
-96 236 -96 246 0 28 33 53 79 59 31 4 41 10 41 24 0 18 -12 19 -215 19 -208
0 -215 -1 -215 -20 0 -15 7 -20 25 -20 35 0 79 -24 97 -52 8 -13 27 -54 43
-91 l29 -69 -94 -189 c-52 -104 -98 -185 -101 -181 -10 10 -196 481 -203 514
-8 34 22 68 59 68 18 0 25 5 25 20 0 19 -7 20 -190 20 -183 0 -190 -1 -190
-20z"/>
</g>
</svg>
