<?xml version="1.0" standalone="no"?>
<!DOCTYPE svg PUBLIC "-//W3C//DTD SVG 20010904//EN"
 "http://www.w3.org/TR/2001/REC-SVG-20010904/DTD/svg10.dtd">
<svg version="1.0" xmlns="http://www.w3.org/2000/svg"
 width="500.000000pt" height="500.000000pt" viewBox="0 0 500.000000 500.000000"
 preserveAspectRatio="xMidYMid meet">

<g transform="translate(0.000000,500.000000) scale(0.100000,-0.100000)"
fill="#000000" stroke="none">
<path d="M2305 4894 c-16 -2 -73 -9 -125 -15 -842 -96 -1610 -668 -1943 -1450
-354 -830 -224 -1760 346 -2469 34 -41 111 -125 173 -186 384 -383 866 -618
1424 -695 55 -8 186 -14 310 -14 124 0 255 6 310 14 718 99 1320 467 1722
1051 412 597 527 1377 307 2066 -125 391 -317 704 -609 994 -375 372 -846 606
-1385 686 -95 14 -467 27 -530 18z m535 -49 c973 -141 1771 -859 2001 -1800
51 -210 63 -318 63 -565 0 -247 -12 -355 -63 -565 -142 -580 -508 -1095 -1015
-1427 -311 -203 -643 -326 -1026 -380 -124 -17 -496 -17 -620 0 -721 101
-1331 481 -1723 1077 -185 282 -309 609 -364 960 -24 153 -24 517 0 670 107
686 476 1265 1050 1649 340 227 699 352 1152 400 87 9 435 -3 545 -19z"/>
<path d="M899 3207 c-67 -19 -131 -60 -182 -117 -104 -116 -104 -275 1 -392
57 -63 138 -116 346 -228 87 -47 179 -103 204 -125 49 -43 82 -103 82 -150 0
-72 -69 -159 -147 -186 -53 -19 -206 -16 -263 5 -67 25 -139 75 -171 119 -25
35 -58 118 -73 190 -4 18 -13 27 -26 27 -19 0 -20 -7 -20 -215 0 -204 1 -215
19 -215 11 0 23 12 31 30 7 17 22 33 34 35 11 3 77 -10 145 -30 213 -60 377
-46 503 45 165 118 192 326 62 470 -52 58 -97 86 -293 190 -308 161 -363 212
-348 322 7 52 51 106 110 136 90 47 244 25 346 -49 67 -48 107 -122 135 -251
4 -19 13 -28 26 -28 19 0 20 7 20 215 0 206 -1 215 -19 215 -12 0 -25 -11 -33
-27 -24 -49 -39 -51 -145 -14 -81 28 -115 35 -198 38 -61 1 -118 -2 -146 -10z"/>
<path d="M1987 2809 c-145 -22 -247 -108 -247 -209 0 -79 77 -117 136 -67 21
19 27 34 31 78 7 86 12 98 46 119 22 14 50 20 91 20 108 0 156 -56 156 -183
l0 -63 -107 -39 c-234 -84 -356 -168 -382 -261 -14 -52 -14 -71 4 -130 26 -90
107 -144 212 -144 68 0 119 21 209 86 l64 45 11 -46 c22 -89 99 -110 195 -55
61 35 124 104 124 137 0 13 -2 23 -4 23 -2 0 -23 -16 -46 -35 -43 -36 -82 -45
-97 -22 -4 6 -10 145 -13 307 -6 324 -7 330 -70 384 -56 47 -200 73 -313 55z
m211 -531 l-3 -162 -70 -38 c-46 -25 -83 -38 -108 -38 -110 0 -177 111 -128
214 24 48 59 80 130 116 45 23 160 69 174 70 4 0 6 -73 5 -162z"/>
<path d="M3965 2814 c-112 -17 -201 -69 -272 -159 -113 -143 -114 -439 -2
-582 113 -143 310 -194 463 -119 92 45 191 172 211 272 5 25 2 33 -12 38 -10
4 -19 4 -20 -1 -2 -4 -17 -32 -33 -61 -57 -99 -164 -146 -278 -123 -149 30
-253 157 -269 328 l-6 63 313 0 313 0 -7 58 c-18 159 -142 272 -312 285 -33 3
-72 3 -89 1z m52 -75 c80 -21 143 -102 143 -186 l0 -23 -206 0 -206 0 7 33
c20 89 76 151 165 178 36 11 46 10 97 -2z"/>
<path d="M2540 2772 c0 -13 13 -21 43 -29 23 -6 54 -24 69 -40 15 -16 98 -186
196 -403 150 -332 172 -375 193 -378 22 -2 35 22 193 381 92 210 177 393 187
406 11 13 36 29 57 36 20 7 38 20 40 29 3 14 -15 16 -147 16 -144 0 -151 -1
-151 -20 0 -16 7 -20 31 -20 43 0 69 -17 69 -45 0 -13 -51 -142 -114 -286
-100 -230 -115 -259 -125 -241 -37 69 -212 470 -217 497 -8 44 22 75 71 75 28
0 35 4 35 20 0 19 -7 20 -215 20 -200 0 -215 -1 -215 -18z"/>
</g>
</svg>
