<?xml version="1.0" standalone="no"?>
<!DOCTYPE svg PUBLIC "-//W3C//DTD SVG 20010904//EN"
 "http://www.w3.org/TR/2001/REC-SVG-20010904/DTD/svg10.dtd">
<svg version="1.0" xmlns="http://www.w3.org/2000/svg"
 width="512.000000pt" height="512.000000pt" viewBox="0 0 512.000000 512.000000"
 preserveAspectRatio="xMidYMid meet">

<g transform="translate(0.000000,512.000000) scale(0.100000,-0.100000)"
fill="#000000" stroke="none">
<path d="M2067 4899 c-154 -36 -245 -154 -255 -330 l-5 -88 -466 -3 -466 -3
-50 -25 c-64 -31 -124 -91 -155 -155 -23 -46 -25 -64 -28 -217 -3 -131 0 -179
12 -222 21 -72 83 -148 151 -187 l55 -31 0 -66 c0 -37 20 -706 45 -1487 35
-1090 48 -1432 59 -1474 48 -175 186 -319 361 -374 l70 -22 1165 0 c1103 0
1168 1 1225 18 98 31 156 66 231 141 74 74 114 143 140 237 11 42 24 378 59
1469 25 778 45 1447 45 1487 l0 71 55 31 c68 39 130 115 151 188 13 43 15 90
12 221 l-3 167 -34 63 c-37 69 -79 109 -151 144 -45 23 -48 23 -566 26 l-522
3 -4 92 c-3 67 -10 106 -27 142 -41 93 -129 163 -229 184 -64 13 -818 13 -875
0z m872 -225 c32 -23 51 -74 51 -139 l0 -55 -480 0 -480 0 0 76 c0 70 2 78 29
105 l29 29 414 0 c366 0 416 -2 437 -16z m1266 -420 c52 -24 65 -64 65 -198 0
-78 -5 -128 -14 -151 -30 -70 101 -65 -1696 -65 -1797 0 -1666 -5 -1696 65
-20 50 -19 256 2 300 33 69 -94 65 1692 65 1449 0 1617 -2 1647 -16z m-159
-771 c-3 -82 -24 -740 -47 -1463 -31 -1028 -43 -1326 -55 -1367 -26 -93 -120
-187 -212 -213 -51 -14 -2293 -14 -2344 0 -92 26 -186 120 -213 213 -11 41
-23 334 -54 1367 -23 723 -44 1381 -47 1463 l-7 147 1493 0 1493 0 -7 -147z"/>
<path d="M1739 3061 c-28 -28 -29 -33 -29 -124 0 -169 50 -1871 55 -1898 13
-61 94 -96 152 -66 60 32 59 -13 29 1060 -23 855 -29 984 -43 1008 -34 57
-116 67 -164 20z"/>
<path d="M2501 3074 c-52 -37 -51 -9 -51 -1049 0 -1058 -2 -1018 59 -1049 38
-20 64 -20 102 0 61 31 59 -9 59 1049 0 1040 1 1012 -51 1049 -13 9 -39 16
-59 16 -20 0 -46 -7 -59 -16z"/>
<path d="M3244 3072 c-12 -9 -27 -27 -32 -38 -7 -14 -21 -373 -38 -1001 -23
-796 -25 -986 -15 -1010 36 -88 174 -76 195 17 6 25 56 1721 56 1897 0 91 -1
96 -29 124 -24 23 -38 29 -73 29 -26 0 -52 -7 -64 -18z"/>
</g>
</svg>
