<svg width="512" height="512" version="1.1" xmlns="http://www.w3.org/2000/svg" desc="Created with imagetracer.js version 1.2.6" ><path fill="rgb(0,0,0)" stroke="rgb(0,0,0)" stroke-width="1" opacity="0" d="M 0 0 L 512 0 L 512 512 L 0 512 L 0 0 Z M 210 21 L 202 23 L 195 27 Q 179 37 181 64 L 91 64 Q 81 66 76 71 Q 67 78 64 91 L 64 123 L 70 137 Q 76 144 85 147 L 86 150 L 88 245 L 89 246 L 89 277 L 90 278 L 90 309 L 91 310 L 91 341 L 92 342 L 92 373 L 93 374 L 93 405 L 94 406 L 94 437 L 95 438 L 95 447 L 98 458 L 110 476 L 128 487 L 143 491 L 370 491 L 383 488 L 393 483 L 402 476 L 408 469 L 414 458 L 417 447 L 417 438 L 418 437 L 420 342 L 421 341 L 421 310 L 422 309 L 422 278 L 423 277 L 423 246 L 424 245 L 424 214 L 425 213 L 425 182 L 426 181 L 426 150 L 427 147 L 436 143 Q 445 136 448 123 L 448 91 Q 446 81 441 76 Q 434 67 422 64 L 320 64 L 320 48 L 319 44 L 312 32 Q 305 23 292 21 L 210 21 Z " /><path fill="rgb(0,0,0)" stroke="rgb(0,0,0)" stroke-width="1" opacity="0" d="M 210.5 43 L 291.5 43 L 297 47.5 Q 300.4 53.8 299 64 L 203.5 64 L 203 63.5 L 203 50.5 L 206.5 45 L 210.5 43 Z " /><path fill="rgb(0,0,0)" stroke="rgb(0,0,0)" stroke-width="1" opacity="0" d="M 96.5 85 L 415.5 85 L 420.5 86 L 425 90.5 L 427 96.5 L 427 117.5 L 425 123.5 L 422.5 126 L 418.5 128 L 93.5 128 L 87 123.5 L 85 117.5 L 85 96.5 L 86 91.5 L 91.5 86 L 96.5 85 Z " /><path fill="rgb(0,0,0)" stroke="rgb(0,0,0)" stroke-width="1" opacity="0" d="M 107 149 L 404.5 149 L 405 149.5 L 405 160.5 L 404 161.5 L 404 192.5 L 403 193.5 L 403 224.5 L 402 225.5 L 402 256.5 L 401 257.5 L 401 288.5 L 400 289.5 L 400 320.5 L 399 321.5 L 399 352.5 L 398 353.5 L 396 441.5 Q 393.5 456 383.5 463 L 370.5 469 L 141.5 469 Q 129.5 466 123 457.5 Q 117.6 451.4 116 441.5 L 114 353.5 L 113 352.5 L 113 321.5 L 112 320.5 L 112 289.5 L 111 288.5 L 111 257.5 L 110 256.5 L 110 225.5 L 109 224.5 L 109 193.5 L 108 192.5 L 108 161.5 L 107 160.5 L 107 149 Z M 178 203 L 176 204 L 171 210 L 171 249 L 172 250 L 174 357 L 175 358 L 175 393 L 176 394 L 176 409 L 177 411 L 184 416 Q 191 417 194 414 L 197 410 L 197 371 L 196 370 L 196 335 L 195 334 L 195 299 L 194 298 L 194 263 L 193 262 L 193 227 L 192 226 L 192 211 L 190 207 Q 187 201 178 203 Z M 253 203 L 251 204 L 245 212 L 245 408 L 247 412 L 254 416 L 262 415 L 267 408 L 267 212 L 266 209 Q 264 201 253 203 Z M 327 203 L 325 204 L 320 211 L 320 226 L 319 227 L 317 334 L 316 335 L 316 370 L 315 371 L 315 410 L 317 413 L 323 416 L 331 415 L 336 409 L 337 357 L 338 356 L 338 321 L 339 320 L 339 285 L 340 284 L 340 249 L 341 248 L 341 210 L 340 208 Q 337 201 327 203 Z " /><path fill="rgb(0,0,0)" stroke="rgb(0,0,0)" stroke-width="1" opacity="0.7215686274509804" d="M 209.5 21 L 292 21.5 L 209.5 22 L 209.5 21 Z " /><path fill="rgb(0,0,0)" stroke="rgb(0,0,0)" stroke-width="1" opacity="0.7215686274509804" d="M 197.5 25 L 196.5 27 L 197.5 25 Z " /><path fill="rgb(0,0,0)" stroke="rgb(0,0,0)" stroke-width="1" opacity="0.7215686274509804" d="M 305.5 26 L 306.5 28 L 305.5 26 Z " /><path fill="rgb(0,0,0)" stroke="rgb(0,0,0)" stroke-width="1" opacity="0.7215686274509804" d="M 194.5 27 L 192.5 30 L 194.5 27 Z " /><path fill="rgb(0,0,0)" stroke="rgb(0,0,0)" stroke-width="1" opacity="0.7215686274509804" d="M 310.5 30 L 311.5 32 L 310.5 30 Z " /><path fill="rgb(0,0,0)" stroke="rgb(0,0,0)" stroke-width="1" opacity="0.7215686274509804" d="M 189.5 32 L 187.5 35 L 189.5 32 Z " /><path fill="rgb(0,0,0)" stroke="rgb(0,0,0)" stroke-width="1" opacity="0.7215686274509804" d="M 313.5 34 L 314.5 36 L 313.5 34 Z " /><path fill="rgb(0,0,0)" stroke="rgb(0,0,0)" stroke-width="1" opacity="0.7215686274509804" d="M 186.5 36 L 185.5 38 L 186.5 36 Z " /><path fill="rgb(0,0,0)" stroke="rgb(0,0,0)" stroke-width="1" opacity="0.7215686274509804" d="M 211.5 42 L 290 42.5 L 211.5 43 L 211.5 42 Z " /><path fill="rgb(0,0,0)" stroke="rgb(0,0,0)" stroke-width="1" opacity="0.7215686274509804" d="M 208.5 43 L 210 43.5 L 207.5 45 L 208.5 43 Z " /><path fill="rgb(0,0,0)" stroke="rgb(0,0,0)" stroke-width="1" opacity="0.7215686274509804" d="M 294.5 44 L 296.5 47 L 294.5 44 Z " /><path fill="rgb(0,0,0)" stroke="rgb(0,0,0)" stroke-width="1" opacity="0.7215686274509804" d="M 204.5 47 L 204 48.5 L 203.5 50 L 203 48.5 L 204.5 47 Z " /><path fill="rgb(0,0,0)" stroke="rgb(0,0,0)" stroke-width="1" opacity="0.7215686274509804" d="M 319.5 47 L 320 50.5 L 319 50.5 L 319.5 47 Z " /><path fill="rgb(0,0,0)" stroke="rgb(0,0,0)" stroke-width="1" opacity="0.7215686274509804" d="M 181.5 49 L 182 63.5 L 181 63.5 L 181.5 49 Z " /><path fill="rgb(0,0,0)" stroke="rgb(0,0,0)" stroke-width="1" opacity="0.7215686274509804" d="M 298.5 50 L 299 52.5 L 298 52.5 L 298.5 50 Z " /><path fill="rgb(0,0,0)" stroke="rgb(0,0,0)" stroke-width="1" opacity="0.7215686274509804" d="M 202.5 51 L 203 63.5 L 202 63.5 L 202.5 51 Z " /><path fill="rgb(0,0,0)" stroke="rgb(0,0,0)" stroke-width="1" opacity="0.7215686274509804" d="M 90.5 64 L 93 64.5 L 90.5 65 L 90.5 64 Z " /><path fill="rgb(0,0,0)" stroke="rgb(0,0,0)" stroke-width="1" opacity="0.7215686274509804" d="M 419.5 64 L 422 64.5 L 419.5 65 L 419.5 64 Z " /><path fill="rgb(0,0,0)" stroke="rgb(0,0,0)" stroke-width="1" opacity="0.7215686274509804" d="M 79.5 68 L 78.5 70 L 79.5 68 Z " /><path fill="rgb(0,0,0)" stroke="rgb(0,0,0)" stroke-width="1" opacity="0.7215686274509804" d="M 432.5 68 L 433.5 70 L 432.5 68 Z " /><path fill="rgb(0,0,0)" stroke="rgb(0,0,0)" stroke-width="1" opacity="0.7215686274509804" d="M 75.5 71 L 71.5 76 L 75.5 71 Z " /><path fill="rgb(0,0,0)" stroke="rgb(0,0,0)" stroke-width="1" opacity="0.7215686274509804" d="M 436.5 71 L 440.5 76 L 436.5 71 Z " /><path fill="rgb(0,0,0)" stroke="rgb(0,0,0)" stroke-width="1" opacity="0.7215686274509804" d="M 69.5 78 L 68.5 80 L 69.5 78 Z " /><path fill="rgb(0,0,0)" stroke="rgb(0,0,0)" stroke-width="1" opacity="0.7215686274509804" d="M 442.5 78 L 443.5 80 L 442.5 78 Z " /><path fill="rgb(0,0,0)" stroke="rgb(0,0,0)" stroke-width="1" opacity="0.7215686274509804" d="M 93.5 85 L 96 85.5 L 93.5 86 L 93.5 85 Z " /><path fill="rgb(0,0,0)" stroke="rgb(0,0,0)" stroke-width="1" opacity="0.7215686274509804" d="M 416.5 85 L 419 85.5 L 416.5 86 L 416.5 85 Z " /><path fill="rgb(0,0,0)" stroke="rgb(0,0,0)" stroke-width="1" opacity="0.7215686274509804" d="M 89.5 87 L 87.5 90 L 89.5 87 Z " /><path fill="rgb(0,0,0)" stroke="rgb(0,0,0)" stroke-width="1" opacity="0.7215686274509804" d="M 422.5 87 L 424.5 90 L 422.5 87 Z " /><path fill="rgb(0,0,0)" stroke="rgb(0,0,0)" stroke-width="1" opacity="0.7215686274509804" d="M 64.5 90 L 65 92.5 L 64 92.5 L 64.5 90 Z " /><path fill="rgb(0,0,0)" stroke="rgb(0,0,0)" stroke-width="1" opacity="0.7215686274509804" d="M 447.5 90 L 448 92.5 L 447 92.5 L 447.5 90 Z " /><path fill="rgb(0,0,0)" stroke="rgb(0,0,0)" stroke-width="1" opacity="0.7215686274509804" d="M 85.5 93 L 86 95.5 L 85 95.5 L 85.5 93 Z " /><path fill="rgb(0,0,0)" stroke="rgb(0,0,0)" stroke-width="1" opacity="0.7215686274509804" d="M 426.5 93 L 427 95.5 L 426 95.5 L 426.5 93 Z " /><path fill="rgb(0,0,0)" stroke="rgb(0,0,0)" stroke-width="1" opacity="0.7215686274509804" d="M 64.5 120 L 65 122.5 L 64 122.5 L 64.5 120 Z " /><path fill="rgb(0,0,0)" stroke="rgb(0,0,0)" stroke-width="1" opacity="0.7215686274509804" d="M 447.5 120 L 448 122.5 L 447 122.5 L 447.5 120 Z " /><path fill="rgb(0,0,0)" stroke="rgb(0,0,0)" stroke-width="1" opacity="0.7215686274509804" d="M 68.5 133 L 69.5 135 L 68.5 133 Z " /><path fill="rgb(0,0,0)" stroke="rgb(0,0,0)" stroke-width="1" opacity="0.7215686274509804" d="M 443.5 133 L 442.5 135 L 443.5 133 Z " /><path fill="rgb(0,0,0)" stroke="rgb(0,0,0)" stroke-width="1" opacity="0.7215686274509804" d="M 70.5 136 L 76.5 143 L 70.5 136 Z " /><path fill="rgb(0,0,0)" stroke="rgb(0,0,0)" stroke-width="1" opacity="0.7215686274509804" d="M 441.5 136 L 435.5 143 L 441.5 136 Z " /><path fill="rgb(0,0,0)" stroke="rgb(0,0,0)" stroke-width="1" opacity="0.7215686274509804" d="M 107.5 161 L 108 176.5 L 107 176.5 L 107.5 161 Z " /><path fill="rgb(0,0,0)" stroke="rgb(0,0,0)" stroke-width="1" opacity="0.7215686274509804" d="M 404.5 161 L 405 176.5 L 404 176.5 L 404.5 161 Z " /><path fill="rgb(0,0,0)" stroke="rgb(0,0,0)" stroke-width="1" opacity="0.7215686274509804" d="M 86.5 165 L 87 180.5 L 86 180.5 L 86.5 165 Z " /><path fill="rgb(0,0,0)" stroke="rgb(0,0,0)" stroke-width="1" opacity="0.7215686274509804" d="M 425.5 165 L 426 180.5 L 425 180.5 L 425.5 165 Z " /><path fill="rgb(0,0,0)" stroke="rgb(0,0,0)" stroke-width="1" opacity="0.7215686274509804" d="M 108.5 193 L 109 208.5 L 108 208.5 L 108.5 193 Z " /><path fill="rgb(0,0,0)" stroke="rgb(0,0,0)" stroke-width="1" opacity="0.7215686274509804" d="M 403.5 193 L 404 208.5 L 403 208.5 L 403.5 193 Z " /><path fill="rgb(0,0,0)" stroke="rgb(0,0,0)" stroke-width="1" opacity="0.7215686274509804" d="M 87.5 197 L 88 212.5 L 87 212.5 L 87.5 197 Z " /><path fill="rgb(0,0,0)" stroke="rgb(0,0,0)" stroke-width="1" opacity="0.7215686274509804" d="M 424.5 197 L 425 212.5 L 424 212.5 L 424.5 197 Z " /><path fill="rgb(0,0,0)" stroke="rgb(0,0,0)" stroke-width="1" opacity="0.7215686274509804" d="M 175.5 204 L 172.5 208 L 175.5 204 Z " /><path fill="rgb(0,0,0)" stroke="rgb(0,0,0)" stroke-width="1" opacity="0.7215686274509804" d="M 324.5 204 L 321.5 208 L 324.5 204 Z " /><path fill="rgb(0,0,0)" stroke="rgb(0,0,0)" stroke-width="1" opacity="0.7215686274509804" d="M 336.5 204 L 339.5 208 L 336.5 204 Z " /><path fill="rgb(0,0,0)" stroke="rgb(0,0,0)" stroke-width="1" opacity="0.7215686274509804" d="M 188.5 205 L 189.5 207 L 188.5 205 Z " /><path fill="rgb(0,0,0)" stroke="rgb(0,0,0)" stroke-width="1" opacity="0.7215686274509804" d="M 245.5 211 L 246 407.5 L 245 407.5 L 245.5 211 Z " /><path fill="rgb(0,0,0)" stroke="rgb(0,0,0)" stroke-width="1" opacity="0.7215686274509804" d="M 266.5 211 L 267 407.5 L 266 407.5 L 266.5 211 Z " /><path fill="rgb(0,0,0)" stroke="rgb(0,0,0)" stroke-width="1" opacity="0.7215686274509804" d="M 109.5 225 L 110 240.5 L 109 240.5 L 109.5 225 Z " /><path fill="rgb(0,0,0)" stroke="rgb(0,0,0)" stroke-width="1" opacity="0.7215686274509804" d="M 402.5 225 L 403 240.5 L 402 240.5 L 402.5 225 Z " /><path fill="rgb(0,0,0)" stroke="rgb(0,0,0)" stroke-width="1" opacity="0.7215686274509804" d="M 192.5 226 L 193 243.5 L 192 243.5 L 192.5 226 Z " /><path fill="rgb(0,0,0)" stroke="rgb(0,0,0)" stroke-width="1" opacity="0.7215686274509804" d="M 319.5 226 L 320 243.5 L 319 243.5 L 319.5 226 Z " /><path fill="rgb(0,0,0)" stroke="rgb(0,0,0)" stroke-width="1" opacity="0.7215686274509804" d="M 88.5 229 L 89 244.5 L 88 244.5 L 88.5 229 Z " /><path fill="rgb(0,0,0)" stroke="rgb(0,0,0)" stroke-width="1" opacity="0.7215686274509804" d="M 423.5 229 L 424 244.5 L 423 244.5 L 423.5 229 Z " /><path fill="rgb(0,0,0)" stroke="rgb(0,0,0)" stroke-width="1" opacity="0.7215686274509804" d="M 171.5 231 L 172 248.5 L 171 248.5 L 171.5 231 Z " /><path fill="rgb(0,0,0)" stroke="rgb(0,0,0)" stroke-width="1" opacity="0.7215686274509804" d="M 340.5 231 L 341 247.5 L 340 247.5 L 340.5 231 Z " /><path fill="rgb(0,0,0)" stroke="rgb(0,0,0)" stroke-width="1" opacity="0.7215686274509804" d="M 110.5 257 L 111 272.5 L 110 272.5 L 110.5 257 Z " /><path fill="rgb(0,0,0)" stroke="rgb(0,0,0)" stroke-width="1" opacity="0.7215686274509804" d="M 401.5 257 L 402 272.5 L 401 272.5 L 401.5 257 Z " /><path fill="rgb(0,0,0)" stroke="rgb(0,0,0)" stroke-width="1" opacity="0.7215686274509804" d="M 89.5 261 L 90 276.5 L 89 276.5 L 89.5 261 Z " /><path fill="rgb(0,0,0)" stroke="rgb(0,0,0)" stroke-width="1" opacity="0.7215686274509804" d="M 422.5 261 L 423 276.5 L 422 276.5 L 422.5 261 Z " /><path fill="rgb(0,0,0)" stroke="rgb(0,0,0)" stroke-width="1" opacity="0.7215686274509804" d="M 193.5 262 L 194 279.5 L 193 279.5 L 193.5 262 Z " /><path fill="rgb(0,0,0)" stroke="rgb(0,0,0)" stroke-width="1" opacity="0.7215686274509804" d="M 318.5 262 L 319 279.5 L 318 279.5 L 318.5 262 Z " /><path fill="rgb(0,0,0)" stroke="rgb(0,0,0)" stroke-width="1" opacity="0.7215686274509804" d="M 172.5 267 L 173 284.5 L 172 284.5 L 172.5 267 Z " /><path fill="rgb(0,0,0)" stroke="rgb(0,0,0)" stroke-width="1" opacity="0.7215686274509804" d="M 339.5 267 L 340 283.5 L 339 283.5 L 339.5 267 Z " /><path fill="rgb(0,0,0)" stroke="rgb(0,0,0)" stroke-width="1" opacity="0.7215686274509804" d="M 111.5 289 L 112 304.5 L 111 304.5 L 111.5 289 Z " /><path fill="rgb(0,0,0)" stroke="rgb(0,0,0)" stroke-width="1" opacity="0.7215686274509804" d="M 400.5 289 L 401 304.5 L 400 304.5 L 400.5 289 Z " /><path fill="rgb(0,0,0)" stroke="rgb(0,0,0)" stroke-width="1" opacity="0.7215686274509804" d="M 90.5 293 L 91 308.5 L 90 308.5 L 90.5 293 Z " /><path fill="rgb(0,0,0)" stroke="rgb(0,0,0)" stroke-width="1" opacity="0.7215686274509804" d="M 421.5 293 L 422 308.5 L 421 308.5 L 421.5 293 Z " /><path fill="rgb(0,0,0)" stroke="rgb(0,0,0)" stroke-width="1" opacity="0.7215686274509804" d="M 194.5 298 L 195 315.5 L 194 315.5 L 194.5 298 Z " /><path fill="rgb(0,0,0)" stroke="rgb(0,0,0)" stroke-width="1" opacity="0.7215686274509804" d="M 317.5 298 L 318 315.5 L 317 315.5 L 317.5 298 Z " /><path fill="rgb(0,0,0)" stroke="rgb(0,0,0)" stroke-width="1" opacity="0.7215686274509804" d="M 173.5 303 L 174 320.5 L 173 320.5 L 173.5 303 Z " /><path fill="rgb(0,0,0)" stroke="rgb(0,0,0)" stroke-width="1" opacity="0.7215686274509804" d="M 338.5 303 L 339 319.5 L 338 319.5 L 338.5 303 Z " /><path fill="rgb(0,0,0)" stroke="rgb(0,0,0)" stroke-width="1" opacity="0.7215686274509804" d="M 112.5 321 L 113 336.5 L 112 336.5 L 112.5 321 Z " /><path fill="rgb(0,0,0)" stroke="rgb(0,0,0)" stroke-width="1" opacity="0.7215686274509804" d="M 399.5 321 L 400 336.5 L 399 336.5 L 399.5 321 Z " /><path fill="rgb(0,0,0)" stroke="rgb(0,0,0)" stroke-width="1" opacity="0.7215686274509804" d="M 91.5 325 L 92 340.5 L 91 340.5 L 91.5 325 Z " /><path fill="rgb(0,0,0)" stroke="rgb(0,0,0)" stroke-width="1" opacity="0.7215686274509804" d="M 420.5 325 L 421 340.5 L 420 340.5 L 420.5 325 Z " /><path fill="rgb(0,0,0)" stroke="rgb(0,0,0)" stroke-width="1" opacity="0.7215686274509804" d="M 195.5 334 L 196 351.5 L 195 351.5 L 195.5 334 Z " /><path fill="rgb(0,0,0)" stroke="rgb(0,0,0)" stroke-width="1" opacity="0.7215686274509804" d="M 316.5 334 L 317 351.5 L 316 351.5 L 316.5 334 Z " /><path fill="rgb(0,0,0)" stroke="rgb(0,0,0)" stroke-width="1" opacity="0.7215686274509804" d="M 174.5 339 L 175 356.5 L 174 356.5 L 174.5 339 Z " /><path fill="rgb(0,0,0)" stroke="rgb(0,0,0)" stroke-width="1" opacity="0.7215686274509804" d="M 337.5 339 L 338 355.5 L 337 355.5 L 337.5 339 Z " /><path fill="rgb(0,0,0)" stroke="rgb(0,0,0)" stroke-width="1" opacity="0.7215686274509804" d="M 113.5 353 L 114 368.5 L 113 368.5 L 113.5 353 Z " /><path fill="rgb(0,0,0)" stroke="rgb(0,0,0)" stroke-width="1" opacity="0.7215686274509804" d="M 398.5 353 L 399 368.5 L 398 368.5 L 398.5 353 Z " /><path fill="rgb(0,0,0)" stroke="rgb(0,0,0)" stroke-width="1" opacity="0.7215686274509804" d="M 92.5 357 L 93 372.5 L 92 372.5 L 92.5 357 Z " /><path fill="rgb(0,0,0)" stroke="rgb(0,0,0)" stroke-width="1" opacity="0.7215686274509804" d="M 419.5 357 L 420 372.5 L 419 372.5 L 419.5 357 Z " /><path fill="rgb(0,0,0)" stroke="rgb(0,0,0)" stroke-width="1" opacity="0.7215686274509804" d="M 196.5 370 L 197 387.5 L 196 387.5 L 196.5 370 Z " /><path fill="rgb(0,0,0)" stroke="rgb(0,0,0)" stroke-width="1" opacity="0.7215686274509804" d="M 315.5 370 L 316 387.5 L 315 387.5 L 315.5 370 Z " /><path fill="rgb(0,0,0)" stroke="rgb(0,0,0)" stroke-width="1" opacity="0.7215686274509804" d="M 175.5 375 L 176 392.5 L 175 392.5 L 175.5 375 Z " /><path fill="rgb(0,0,0)" stroke="rgb(0,0,0)" stroke-width="1" opacity="0.7215686274509804" d="M 336.5 375 L 337 391.5 L 336 391.5 L 336.5 375 Z " /><path fill="rgb(0,0,0)" stroke="rgb(0,0,0)" stroke-width="1" opacity="0.7215686274509804" d="M 114.5 385 L 115 400.5 L 114 400.5 L 114.5 385 Z " /><path fill="rgb(0,0,0)" stroke="rgb(0,0,0)" stroke-width="1" opacity="0.7215686274509804" d="M 397.5 385 L 398 400.5 L 397 400.5 L 397.5 385 Z " /><path fill="rgb(0,0,0)" stroke="rgb(0,0,0)" stroke-width="1" opacity="0.7215686274509804" d="M 93.5 389 L 94 404.5 L 93 404.5 L 93.5 389 Z " /><path fill="rgb(0,0,0)" stroke="rgb(0,0,0)" stroke-width="1" opacity="0.7215686274509804" d="M 418.5 389 L 419 404.5 L 418 404.5 L 418.5 389 Z " /><path fill="rgb(0,0,0)" stroke="rgb(0,0,0)" stroke-width="1" opacity="0.7215686274509804" d="M 247.5 411 L 250.5 415 L 247.5 411 Z " /><path fill="rgb(0,0,0)" stroke="rgb(0,0,0)" stroke-width="1" opacity="0.7215686274509804" d="M 264.5 411 L 261.5 415 L 264.5 411 Z " /><path fill="rgb(0,0,0)" stroke="rgb(0,0,0)" stroke-width="1" opacity="0.7215686274509804" d="M 194.5 412 L 193.5 414 L 194.5 412 Z " /><path fill="rgb(0,0,0)" stroke="rgb(0,0,0)" stroke-width="1" opacity="0.7215686274509804" d="M 317.5 412 L 318.5 414 L 317.5 412 Z " /><path fill="rgb(0,0,0)" stroke="rgb(0,0,0)" stroke-width="1" opacity="0.7215686274509804" d="M 115.5 417 L 116 432.5 L 115 432.5 L 115.5 417 Z " /><path fill="rgb(0,0,0)" stroke="rgb(0,0,0)" stroke-width="1" opacity="0.7215686274509804" d="M 396.5 417 L 397 432.5 L 396 432.5 L 396.5 417 Z " /><path fill="rgb(0,0,0)" stroke="rgb(0,0,0)" stroke-width="1" opacity="0.7215686274509804" d="M 94.5 421 L 95 436.5 L 94 436.5 L 94.5 421 Z " /><path fill="rgb(0,0,0)" stroke="rgb(0,0,0)" stroke-width="1" opacity="0.7215686274509804" d="M 417.5 421 L 418 436.5 L 417 436.5 L 417.5 421 Z " /><path fill="rgb(0,0,0)" stroke="rgb(0,0,0)" stroke-width="1" opacity="0.7215686274509804" d="M 116.5 442 L 117 444.5 L 116 444.5 L 116.5 442 Z " /><path fill="rgb(0,0,0)" stroke="rgb(0,0,0)" stroke-width="1" opacity="0.7215686274509804" d="M 395.5 442 L 396 444.5 L 395 444.5 L 395.5 442 Z " /><path fill="rgb(0,0,0)" stroke="rgb(0,0,0)" stroke-width="1" opacity="0.7215686274509804" d="M 95.5 444 L 96 446.5 L 95 446.5 L 95.5 444 Z " /><path fill="rgb(0,0,0)" stroke="rgb(0,0,0)" stroke-width="1" opacity="0.7215686274509804" d="M 392.5 452 L 391.5 454 L 392.5 452 Z " /><path fill="rgb(0,0,0)" stroke="rgb(0,0,0)" stroke-width="1" opacity="0.7215686274509804" d="M 121.5 455 L 122.5 457 L 121.5 455 Z " /><path fill="rgb(0,0,0)" stroke="rgb(0,0,0)" stroke-width="1" opacity="0.7215686274509804" d="M 123.5 458 L 125.5 461 L 123.5 458 Z " /><path fill="rgb(0,0,0)" stroke="rgb(0,0,0)" stroke-width="1" opacity="0.7215686274509804" d="M 387.5 459 L 385.5 462 L 387.5 459 Z " /><path fill="rgb(0,0,0)" stroke="rgb(0,0,0)" stroke-width="1" opacity="0.7215686274509804" d="M 129.5 463 L 130.5 465 L 129.5 463 Z " /><path fill="rgb(0,0,0)" stroke="rgb(0,0,0)" stroke-width="1" opacity="0.7215686274509804" d="M 382.5 463 L 381.5 465 L 382.5 463 Z " /><path fill="rgb(0,0,0)" stroke="rgb(0,0,0)" stroke-width="1" opacity="0.7215686274509804" d="M 407.5 468 L 405.5 471 L 407.5 468 Z " /><path fill="rgb(0,0,0)" stroke="rgb(0,0,0)" stroke-width="1" opacity="0.7215686274509804" d="M 105.5 469 L 106.5 471 L 105.5 469 Z " /><path fill="rgb(0,0,0)" stroke="rgb(0,0,0)" stroke-width="1" opacity="0.7215686274509804" d="M 145.5 469 L 367 469.5 L 145.5 470 L 145.5 469 Z " /><path fill="rgb(0,0,0)" stroke="rgb(0,0,0)" stroke-width="1" opacity="0.7215686274509804" d="M 114.5 478 L 116.5 481 L 114.5 478 Z " /><path fill="rgb(0,0,0)" stroke="rgb(0,0,0)" stroke-width="1" opacity="0.7215686274509804" d="M 396.5 479 L 395.5 481 L 396.5 479 Z " /><path fill="rgb(0,0,0)" stroke="rgb(0,0,0)" stroke-width="1" opacity="0.7215686274509804" d="M 118.5 481 L 119.5 483 L 118.5 481 Z " /><path fill="rgb(0,0,0)" stroke="rgb(0,0,0)" stroke-width="1" opacity="0.7215686274509804" d="M 393.5 481 L 392.5 483 L 393.5 481 Z " /><path fill="rgb(0,0,0)" stroke="rgb(0,0,0)" stroke-width="1" opacity="0.7215686274509804" d="M 136.5 489 L 139 489.5 L 136.5 490 L 136.5 489 Z " /><path fill="rgb(0,0,0)" stroke="rgb(0,0,0)" stroke-width="1" opacity="0.7215686274509804" d="M 373.5 489 L 376 489.5 L 373.5 490 L 373.5 489 Z " /><path fill="rgb(0,0,0)" stroke="rgb(0,0,0)" stroke-width="1" opacity="0.7215686274509804" d="M 142.5 490 L 370 490.5 L 142.5 491 L 142.5 490 Z " /><path fill="rgb(0,0,0)" stroke="rgb(0,0,0)" stroke-width="1" opacity="0.996078431372549" d="M 307.5 28 L 312.5 34 L 307.5 28 Z " /><path fill="rgb(0,0,0)" stroke="rgb(0,0,0)" stroke-width="1" opacity="0.996078431372549" d="M 191.5 30 L 190.5 32 L 191.5 30 Z " /><path fill="rgb(0,0,0)" stroke="rgb(0,0,0)" stroke-width="1" opacity="0.996078431372549" d="M 206.5 44 L 204.5 47 L 206.5 44 Z " /><path fill="rgb(0,0,0)" stroke="rgb(0,0,0)" stroke-width="1" opacity="0.996078431372549" d="M 319.5 51 L 320 53.5 L 319 53.5 L 319.5 51 Z " /><path fill="rgb(0,0,0)" stroke="rgb(0,0,0)" stroke-width="1" opacity="0.996078431372549" d="M 93.5 64 L 96 64.5 L 93.5 65 L 93.5 64 Z " /><path fill="rgb(0,0,0)" stroke="rgb(0,0,0)" stroke-width="1" opacity="0.996078431372549" d="M 416.5 64 L 419 64.5 L 416.5 65 L 416.5 64 Z " /><path fill="rgb(0,0,0)" stroke="rgb(0,0,0)" stroke-width="1" opacity="0.996078431372549" d="M 64.5 93 L 65 95.5 L 64 95.5 L 64.5 93 Z " /><path fill="rgb(0,0,0)" stroke="rgb(0,0,0)" stroke-width="1" opacity="0.996078431372549" d="M 447.5 93 L 448 95.5 L 447 95.5 L 447.5 93 Z " /><path fill="rgb(0,0,0)" stroke="rgb(0,0,0)" stroke-width="1" opacity="0.996078431372549" d="M 64.5 117 L 65 119.5 L 64 119.5 L 64.5 117 Z " /><path fill="rgb(0,0,0)" stroke="rgb(0,0,0)" stroke-width="1" opacity="0.996078431372549" d="M 447.5 117 L 448 119.5 L 447 119.5 L 447.5 117 Z " /><path fill="rgb(0,0,0)" stroke="rgb(0,0,0)" stroke-width="1" opacity="0.996078431372549" d="M 87.5 124 L 89.5 127 L 87.5 124 Z " /><path fill="rgb(0,0,0)" stroke="rgb(0,0,0)" stroke-width="1" opacity="0.996078431372549" d="M 424.5 124 L 422.5 127 L 424.5 124 Z " /><path fill="rgb(0,0,0)" stroke="rgb(0,0,0)" stroke-width="1" opacity="0.996078431372549" d="M 77.5 142 L 78.5 144 L 77.5 142 Z " /><path fill="rgb(0,0,0)" stroke="rgb(0,0,0)" stroke-width="1" opacity="0.996078431372549" d="M 434.5 142 L 433.5 144 L 434.5 142 Z " /><path fill="rgb(0,0,0)" stroke="rgb(0,0,0)" stroke-width="1" opacity="0.996078431372549" d="M 86.5 160 L 87 164.5 L 86 164.5 L 86.5 160 Z " /><path fill="rgb(0,0,0)" stroke="rgb(0,0,0)" stroke-width="1" opacity="0.996078431372549" d="M 425.5 161 L 426 164.5 L 425 164.5 L 425.5 161 Z " /><path fill="rgb(0,0,0)" stroke="rgb(0,0,0)" stroke-width="1" opacity="0.996078431372549" d="M 107.5 177 L 108 180.5 L 107 180.5 L 107.5 177 Z " /><path fill="rgb(0,0,0)" stroke="rgb(0,0,0)" stroke-width="1" opacity="0.996078431372549" d="M 404.5 177 L 405 180.5 L 404 180.5 L 404.5 177 Z " /><path fill="rgb(0,0,0)" stroke="rgb(0,0,0)" stroke-width="1" opacity="0.996078431372549" d="M 87.5 192 L 88 196.5 L 87 196.5 L 87.5 192 Z " /><path fill="rgb(0,0,0)" stroke="rgb(0,0,0)" stroke-width="1" opacity="0.996078431372549" d="M 424.5 193 L 425 196.5 L 424 196.5 L 424.5 193 Z " /><path fill="rgb(0,0,0)" stroke="rgb(0,0,0)" stroke-width="1" opacity="0.996078431372549" d="M 186.5 204 L 187.5 206 L 186.5 204 Z " /><path fill="rgb(0,0,0)" stroke="rgb(0,0,0)" stroke-width="1" opacity="0.996078431372549" d="M 249.5 205 L 247.5 208 L 249.5 205 Z " /><path fill="rgb(0,0,0)" stroke="rgb(0,0,0)" stroke-width="1" opacity="0.996078431372549" d="M 262.5 205 L 264.5 208 L 262.5 205 Z " /><path fill="rgb(0,0,0)" stroke="rgb(0,0,0)" stroke-width="1" opacity="0.996078431372549" d="M 108.5 209 L 109 212.5 L 108 212.5 L 108.5 209 Z " /><path fill="rgb(0,0,0)" stroke="rgb(0,0,0)" stroke-width="1" opacity="0.996078431372549" d="M 403.5 209 L 404 212.5 L 403 212.5 L 403.5 209 Z " /><path fill="rgb(0,0,0)" stroke="rgb(0,0,0)" stroke-width="1" opacity="0.996078431372549" d="M 88.5 224 L 89 228.5 L 88 228.5 L 88.5 224 Z " /><path fill="rgb(0,0,0)" stroke="rgb(0,0,0)" stroke-width="1" opacity="0.996078431372549" d="M 340.5 225 L 341 230.5 L 340 230.5 L 340.5 225 Z " /><path fill="rgb(0,0,0)" stroke="rgb(0,0,0)" stroke-width="1" opacity="0.996078431372549" d="M 423.5 225 L 424 228.5 L 423 228.5 L 423.5 225 Z " /><path fill="rgb(0,0,0)" stroke="rgb(0,0,0)" stroke-width="1" opacity="0.996078431372549" d="M 171.5 226 L 172 230.5 L 171 230.5 L 171.5 226 Z " /><path fill="rgb(0,0,0)" stroke="rgb(0,0,0)" stroke-width="1" opacity="0.996078431372549" d="M 109.5 241 L 110 244.5 L 109 244.5 L 109.5 241 Z " /><path fill="rgb(0,0,0)" stroke="rgb(0,0,0)" stroke-width="1" opacity="0.996078431372549" d="M 402.5 241 L 403 244.5 L 402 244.5 L 402.5 241 Z " /><path fill="rgb(0,0,0)" stroke="rgb(0,0,0)" stroke-width="1" opacity="0.996078431372549" d="M 192.5 244 L 193 248.5 L 192 248.5 L 192.5 244 Z " /><path fill="rgb(0,0,0)" stroke="rgb(0,0,0)" stroke-width="1" opacity="0.996078431372549" d="M 319.5 244 L 320 248.5 L 319 248.5 L 319.5 244 Z " /><path fill="rgb(0,0,0)" stroke="rgb(0,0,0)" stroke-width="1" opacity="0.996078431372549" d="M 89.5 256 L 90 260.5 L 89 260.5 L 89.5 256 Z " /><path fill="rgb(0,0,0)" stroke="rgb(0,0,0)" stroke-width="1" opacity="0.996078431372549" d="M 422.5 257 L 423 260.5 L 422 260.5 L 422.5 257 Z " /><path fill="rgb(0,0,0)" stroke="rgb(0,0,0)" stroke-width="1" opacity="0.996078431372549" d="M 339.5 261 L 340 266.5 L 339 266.5 L 339.5 261 Z " /><path fill="rgb(0,0,0)" stroke="rgb(0,0,0)" stroke-width="1" opacity="0.996078431372549" d="M 172.5 262 L 173 266.5 L 172 266.5 L 172.5 262 Z " /><path fill="rgb(0,0,0)" stroke="rgb(0,0,0)" stroke-width="1" opacity="0.996078431372549" d="M 110.5 273 L 111 276.5 L 110 276.5 L 110.5 273 Z " /><path fill="rgb(0,0,0)" stroke="rgb(0,0,0)" stroke-width="1" opacity="0.996078431372549" d="M 401.5 273 L 402 276.5 L 401 276.5 L 401.5 273 Z " /><path fill="rgb(0,0,0)" stroke="rgb(0,0,0)" stroke-width="1" opacity="0.996078431372549" d="M 193.5 280 L 194 284.5 L 193 284.5 L 193.5 280 Z " /><path fill="rgb(0,0,0)" stroke="rgb(0,0,0)" stroke-width="1" opacity="0.996078431372549" d="M 318.5 280 L 319 284.5 L 318 284.5 L 318.5 280 Z " /><path fill="rgb(0,0,0)" stroke="rgb(0,0,0)" stroke-width="1" opacity="0.996078431372549" d="M 90.5 288 L 91 292.5 L 90 292.5 L 90.5 288 Z " /><path fill="rgb(0,0,0)" stroke="rgb(0,0,0)" stroke-width="1" opacity="0.996078431372549" d="M 421.5 289 L 422 292.5 L 421 292.5 L 421.5 289 Z " /><path fill="rgb(0,0,0)" stroke="rgb(0,0,0)" stroke-width="1" opacity="0.996078431372549" d="M 173.5 298 L 174 302.5 L 173 302.5 L 173.5 298 Z " /><path fill="rgb(0,0,0)" stroke="rgb(0,0,0)" stroke-width="1" opacity="0.996078431372549" d="M 338.5 298 L 339 302.5 L 338 302.5 L 338.5 298 Z " /><path fill="rgb(0,0,0)" stroke="rgb(0,0,0)" stroke-width="1" opacity="0.996078431372549" d="M 111.5 305 L 112 309.5 L 111 309.5 L 111.5 305 Z " /><path fill="rgb(0,0,0)" stroke="rgb(0,0,0)" stroke-width="1" opacity="0.996078431372549" d="M 400.5 305 L 401 308.5 L 400 308.5 L 400.5 305 Z " /><path fill="rgb(0,0,0)" stroke="rgb(0,0,0)" stroke-width="1" opacity="0.996078431372549" d="M 194.5 316 L 195 320.5 L 194 320.5 L 194.5 316 Z " /><path fill="rgb(0,0,0)" stroke="rgb(0,0,0)" stroke-width="1" opacity="0.996078431372549" d="M 317.5 316 L 318 320.5 L 317 320.5 L 317.5 316 Z " /><path fill="rgb(0,0,0)" stroke="rgb(0,0,0)" stroke-width="1" opacity="0.996078431372549" d="M 91.5 320 L 92 324.5 L 91 324.5 L 91.5 320 Z " /><path fill="rgb(0,0,0)" stroke="rgb(0,0,0)" stroke-width="1" opacity="0.996078431372549" d="M 420.5 321 L 421 324.5 L 420 324.5 L 420.5 321 Z " /><path fill="rgb(0,0,0)" stroke="rgb(0,0,0)" stroke-width="1" opacity="0.996078431372549" d="M 174.5 334 L 175 338.5 L 174 338.5 L 174.5 334 Z " /><path fill="rgb(0,0,0)" stroke="rgb(0,0,0)" stroke-width="1" opacity="0.996078431372549" d="M 337.5 334 L 338 338.5 L 337 338.5 L 337.5 334 Z " /><path fill="rgb(0,0,0)" stroke="rgb(0,0,0)" stroke-width="1" opacity="0.996078431372549" d="M 112.5 337 L 113 341.5 L 112 341.5 L 112.5 337 Z " /><path fill="rgb(0,0,0)" stroke="rgb(0,0,0)" stroke-width="1" opacity="0.996078431372549" d="M 399.5 337 L 400 340.5 L 399 340.5 L 399.5 337 Z " /><path fill="rgb(0,0,0)" stroke="rgb(0,0,0)" stroke-width="1" opacity="0.996078431372549" d="M 92.5 352 L 93 356.5 L 92 356.5 L 92.5 352 Z " /><path fill="rgb(0,0,0)" stroke="rgb(0,0,0)" stroke-width="1" opacity="0.996078431372549" d="M 195.5 352 L 196 356.5 L 195 356.5 L 195.5 352 Z " /><path fill="rgb(0,0,0)" stroke="rgb(0,0,0)" stroke-width="1" opacity="0.996078431372549" d="M 316.5 352 L 317 356.5 L 316 356.5 L 316.5 352 Z " /><path fill="rgb(0,0,0)" stroke="rgb(0,0,0)" stroke-width="1" opacity="0.996078431372549" d="M 419.5 353 L 420 356.5 L 419 356.5 L 419.5 353 Z " /><path fill="rgb(0,0,0)" stroke="rgb(0,0,0)" stroke-width="1" opacity="0.996078431372549" d="M 113.5 369 L 114 373.5 L 113 373.5 L 113.5 369 Z " /><path fill="rgb(0,0,0)" stroke="rgb(0,0,0)" stroke-width="1" opacity="0.996078431372549" d="M 398.5 369 L 399 372.5 L 398 372.5 L 398.5 369 Z " /><path fill="rgb(0,0,0)" stroke="rgb(0,0,0)" stroke-width="1" opacity="0.996078431372549" d="M 175.5 370 L 176 374.5 L 175 374.5 L 175.5 370 Z " /><path fill="rgb(0,0,0)" stroke="rgb(0,0,0)" stroke-width="1" opacity="0.996078431372549" d="M 336.5 370 L 337 374.5 L 336 374.5 L 336.5 370 Z " /><path fill="rgb(0,0,0)" stroke="rgb(0,0,0)" stroke-width="1" opacity="0.996078431372549" d="M 93.5 384 L 94 388.5 L 93 388.5 L 93.5 384 Z " /><path fill="rgb(0,0,0)" stroke="rgb(0,0,0)" stroke-width="1" opacity="0.996078431372549" d="M 418.5 385 L 419 388.5 L 418 388.5 L 418.5 385 Z " /><path fill="rgb(0,0,0)" stroke="rgb(0,0,0)" stroke-width="1" opacity="0.996078431372549" d="M 196.5 388 L 197 392.5 L 196 392.5 L 196.5 388 Z " /><path fill="rgb(0,0,0)" stroke="rgb(0,0,0)" stroke-width="1" opacity="0.996078431372549" d="M 315.5 388 L 316 392.5 L 315 392.5 L 315.5 388 Z " /><path fill="rgb(0,0,0)" stroke="rgb(0,0,0)" stroke-width="1" opacity="0.996078431372549" d="M 114.5 401 L 115 405.5 L 114 405.5 L 114.5 401 Z " /><path fill="rgb(0,0,0)" stroke="rgb(0,0,0)" stroke-width="1" opacity="0.996078431372549" d="M 397.5 401 L 398 404.5 L 397 404.5 L 397.5 401 Z " /><path fill="rgb(0,0,0)" stroke="rgb(0,0,0)" stroke-width="1" opacity="0.996078431372549" d="M 195.5 410 L 194.5 412 L 195.5 410 Z " /><path fill="rgb(0,0,0)" stroke="rgb(0,0,0)" stroke-width="1" opacity="0.996078431372549" d="M 316.5 410 L 317.5 412 L 316.5 410 Z " /><path fill="rgb(0,0,0)" stroke="rgb(0,0,0)" stroke-width="1" opacity="0.996078431372549" d="M 178.5 411 L 180.5 414 L 178.5 411 Z " /><path fill="rgb(0,0,0)" stroke="rgb(0,0,0)" stroke-width="1" opacity="0.996078431372549" d="M 333.5 411 L 331.5 414 L 333.5 411 Z " /><path fill="rgb(0,0,0)" stroke="rgb(0,0,0)" stroke-width="1" opacity="0.996078431372549" d="M 185.5 415 L 188 415.5 L 185.5 416 L 185.5 415 Z " /><path fill="rgb(0,0,0)" stroke="rgb(0,0,0)" stroke-width="1" opacity="0.996078431372549" d="M 324.5 415 L 327 415.5 L 324.5 416 L 324.5 415 Z " /><path fill="rgb(0,0,0)" stroke="rgb(0,0,0)" stroke-width="1" opacity="0.996078431372549" d="M 94.5 416 L 95 420.5 L 94 420.5 L 94.5 416 Z " /><path fill="rgb(0,0,0)" stroke="rgb(0,0,0)" stroke-width="1" opacity="0.996078431372549" d="M 417.5 417 L 418 420.5 L 417 420.5 L 417.5 417 Z " /><path fill="rgb(0,0,0)" stroke="rgb(0,0,0)" stroke-width="1" opacity="0.996078431372549" d="M 115.5 433 L 116 437.5 L 115 437.5 L 115.5 433 Z " /><path fill="rgb(0,0,0)" stroke="rgb(0,0,0)" stroke-width="1" opacity="0.996078431372549" d="M 396.5 433 L 397 436.5 L 396 436.5 L 396.5 433 Z " /><path fill="rgb(0,0,0)" stroke="rgb(0,0,0)" stroke-width="1" opacity="0.996078431372549" d="M 389.5 457 L 388.5 459 L 389.5 457 Z " /><path fill="rgb(0,0,0)" stroke="rgb(0,0,0)" stroke-width="1" opacity="0.996078431372549" d="M 126.5 461 L 128.5 464 L 126.5 461 Z " /><path fill="rgb(0,0,0)" stroke="rgb(0,0,0)" stroke-width="1" opacity="0.996078431372549" d="M 384.5 462 L 383.5 464 L 384.5 462 Z " /><path fill="rgb(0,0,0)" stroke="rgb(0,0,0)" stroke-width="1" opacity="0.996078431372549" d="M 107.5 471 L 113.5 478 L 107.5 471 Z " /><path fill="rgb(0,0,0)" stroke="rgb(0,0,0)" stroke-width="1" opacity="0.996078431372549" d="M 404.5 471 L 397.5 479 L 404.5 471 Z " /><path fill="rgb(0,0,0)" stroke="rgb(0,0,0)" stroke-width="1" opacity="1" d="M 207.5 22 L 293.5 22 Q 307.3 25.3 314 35.5 L 319 46.5 L 320 64 L 415.5 64 L 426.5 66 Q 435.5 69.5 441 76.5 L 447 89.5 Q 445.5 95 448 96.5 L 448 116.5 L 446 127.5 Q 442.5 136.5 435.5 142 L 426 147.5 L 425 192.5 L 424 193.5 L 424 224.5 L 423 225.5 L 423 256.5 L 422 257.5 L 422 288.5 L 421 289.5 L 421 320.5 L 420 321.5 L 420 352.5 L 419 353.5 L 419 384.5 L 418 385.5 L 418 416.5 L 417 417.5 L 417 442.5 Q 412.9 467.9 395.5 480 Q 386.1 487.6 371.5 490 L 140.5 490 Q 116.9 485.1 105 468.5 L 98 455.5 L 95 442.5 L 93 352.5 L 92 351.5 L 92 320.5 L 91 319.5 L 91 288.5 L 90 287.5 L 90 256.5 L 89 255.5 L 89 224.5 L 88 223.5 L 88 192.5 L 87 191.5 L 87 160.5 L 86 159.5 L 86 147.5 L 84.5 146 Q 75.8 143.2 71 136.5 L 65 124.5 L 64 96.5 L 66 85.5 Q 69.5 76.5 76.5 71 L 85.5 66 L 96.5 64 L 182 64 Q 179.5 37.7 194.5 28 L 207.5 22 Z M 211 42 L 207 44 L 202 51 L 202 64 L 203 64 L 299 64 L 299 50 L 298 48 L 291 42 L 211 42 Z M 93 85 L 91 86 L 85 93 L 85 121 L 87 125 L 92 128 L 421 128 L 423 127 L 427 121 L 427 93 L 426 91 L 420 85 L 93 85 Z M 107 149 L 108 213 L 109 214 L 109 245 L 110 246 L 110 277 L 111 278 L 111 310 L 112 311 L 112 342 L 113 343 L 113 374 L 114 375 L 114 406 L 115 407 L 115 438 L 117 449 L 122 458 Q 129 468 144 470 L 369 470 L 377 468 L 384 464 Q 391 458 395 449 L 396 438 L 397 437 L 399 342 L 400 341 L 400 310 L 401 309 L 401 278 L 402 277 L 402 246 L 403 245 L 403 214 L 404 213 L 404 182 L 405 181 L 405 150 L 405 149 L 107 149 Z " /><path fill="rgb(0,0,0)" stroke="rgb(0,0,0)" stroke-width="1" opacity="1" d="M 179.5 203 Q 186 203.3 189 206 L 192 213.5 L 192 248.5 L 193 249.5 L 193 284.5 L 194 285.5 L 194 320.5 L 195 321.5 L 195 356.5 L 196 357.5 L 197 406.5 L 194 413 L 190.5 415 L 183.5 415 L 178 410.5 L 176 404.5 L 176 370.5 L 175 369.5 L 175 334.5 L 174 333.5 L 174 298.5 L 173 297.5 L 173 262.5 L 172 261.5 L 171 211.5 L 175.5 205 L 179.5 203 Z " /><path fill="rgb(0,0,0)" stroke="rgb(0,0,0)" stroke-width="1" opacity="1" d="M 254.5 203 Q 262.6 202.9 265 208.5 L 266 210.5 L 266 408.5 L 261.5 414 L 252.5 415 L 247 410.5 L 246 408.5 L 246 210.5 L 251.5 204 L 254.5 203 Z " /><path fill="rgb(0,0,0)" stroke="rgb(0,0,0)" stroke-width="1" opacity="1" d="M 328.5 203 L 332.5 203 L 339 207.5 L 341 211.5 L 341 224.5 L 340 225.5 L 340 260.5 L 339 261.5 L 339 297.5 L 338 298.5 L 336 404.5 Q 335.1 411.1 330.5 414 L 321.5 415 L 318 413 Q 313.1 407.3 315 393.5 L 316 392.5 L 316 357.5 L 317 356.5 L 319 249.5 L 320 248.5 L 320 213.5 L 322 207.5 L 324.5 205 L 328.5 203 Z " /></svg>