<?xml version="1.0" standalone="no"?>
<!DOCTYPE svg PUBLIC "-//W3C//DTD SVG 20010904//EN"
 "http://www.w3.org/TR/2001/REC-SVG-20010904/DTD/svg10.dtd">
<svg version="1.0" xmlns="http://www.w3.org/2000/svg"
 width="500.000000pt" height="500.000000pt" viewBox="0 0 500.000000 500.000000"
 preserveAspectRatio="xMidYMid meet">

<g transform="translate(0.000000,500.000000) scale(0.100000,-0.100000)"
fill="#000000" stroke="none">
<path d="M2305 4894 c-16 -2 -73 -9 -125 -15 -842 -96 -1610 -668 -1943 -1450
-354 -830 -224 -1760 346 -2469 34 -41 111 -125 173 -186 384 -383 866 -618
1424 -695 55 -8 186 -14 310 -14 124 0 255 6 310 14 718 99 1320 467 1722
1051 412 597 527 1377 307 2066 -125 391 -317 704 -609 994 -375 372 -846 606
-1385 686 -95 14 -467 27 -530 18z m535 -49 c973 -141 1771 -859 2001 -1800
51 -210 63 -318 63 -565 0 -247 -12 -355 -63 -565 -142 -580 -508 -1095 -1015
-1427 -311 -203 -643 -326 -1026 -380 -124 -17 -496 -17 -620 0 -721 101
-1331 481 -1723 1077 -185 282 -309 609 -364 960 -24 153 -24 517 0 670 107
686 476 1265 1050 1649 340 227 699 352 1152 400 87 9 435 -3 545 -19z"/>
<path d="M2135 3938 c-45 -16 -93 -55 -112 -91 -9 -18 -19 -61 -22 -97 l-6
-65 -302 -5 -301 -5 -39 -31 c-65 -51 -83 -101 -83 -224 0 -126 20 -177 87
-225 29 -21 43 -39 47 -60 2 -16 14 -365 26 -775 29 -1008 32 -1063 59 -1121
35 -74 85 -125 159 -161 l67 -33 745 0 745 0 67 33 c74 36 124 87 159 161 27
58 31 120 59 1106 11 407 23 758 26 780 5 33 13 46 47 70 67 49 87 99 87 225
0 123 -18 173 -83 224 l-39 31 -334 3 -334 3 0 42 c0 23 -5 60 -11 82 -15 52
-82 119 -134 134 -52 14 -538 13 -580 -1z m542 -129 c37 -14 43 -25 43 -81 l0
-48 -295 0 -295 0 0 48 c0 49 13 71 50 85 29 10 468 7 497 -4z m809 -267 c23
-15 34 -53 34 -122 0 -69 -11 -107 -34 -122 -6 -4 -468 -8 -1026 -8 -558 0
-1020 4 -1026 8 -23 15 -34 53 -34 122 0 69 11 107 34 122 14 10 2038 10 2052
0z m-106 -429 c1 -178 -54 -1766 -62 -1798 -15 -60 -80 -120 -146 -134 -74
-15 -1350 -15 -1424 0 -66 14 -131 74 -146 134 -8 32 -63 1620 -62 1798 l0 47
920 0 920 0 0 -47z"/>
<path d="M1945 2797 c-13 -21 -13 -89 2 -628 9 -332 20 -614 24 -627 11 -29
51 -45 84 -32 47 18 46 -28 16 963 -8 270 -12 311 -27 328 -25 28 -79 25 -99
-4z"/>
<path d="M2414 2806 c-18 -14 -19 -32 -19 -640 0 -694 -3 -659 65 -659 68 0
65 -35 65 659 0 608 -1 626 -19 640 -11 8 -32 14 -46 14 -14 0 -35 -6 -46 -14z"/>
<path d="M2876 2804 c-9 -8 -16 -16 -17 -17 -6 -17 -34 -1229 -28 -1245 19
-51 97 -48 116 5 7 17 17 271 27 627 18 671 20 646 -49 646 -18 0 -41 -7 -49
-16z"/>
</g>
</svg>
